<?xml version="1.0" encoding="UTF-8" standalone="no"?>
<svg width="972px" height="646px" viewBox="0 0 972 646" version="1.1" xmlns="http://www.w3.org/2000/svg" xmlns:xlink="http://www.w3.org/1999/xlink" xmlns:sketch="http://www.bohemiancoding.com/sketch/ns">
    <!-- Generator: Sketch 3.4.4 (17249) - http://www.bohemiancoding.com/sketch -->
    <title>logo + steak</title>
    <desc>Created with Sketch.</desc>
    <defs></defs>
    <g id="Page-1" stroke="none" stroke-width="1" fill="none" fill-rule="evenodd" sketch:type="MSPage">
        <g id="Desktop-HD" sketch:type="MSArtboardGroup" transform="translate(-330.000000, -2489.000000)">
            <g id="Work" sketch:type="MSLayerGroup" transform="translate(-34.000000, 1463.000000)">
                <g id="Rectangle-12-+-Just-keep-swimming" transform="translate(0.000000, 958.000000)" sketch:type="MSShapeGroup">
                    <g id="Rectangle-12-+-Group">
                        <g id="logo-+-steak" transform="translate(364.000000, 0.000000)">
                            <g id="logo" transform="translate(101.000000, 464.500000) rotate(-270.000000) translate(-101.000000, -464.500000) translate(-109.500000, 363.500000)" fill="#FFFFFF">
                                <g id="Path-+-Shape-Copy" transform="translate(-0.000000, 0.000000)">
                                    <path d="M11.1690864,27.2282476 C136.108592,108.937515 242.700696,46.416986 242.700696,46.416986 C242.700696,46.416986 242.619867,48.731707 243.430631,25.514467 C313.252831,27.952712 405.407547,60.2277654 405.407547,60.2277654 C417.242666,54.8296695 417.895431,36.1371694 418.159894,28.5639438 C418.423758,21.0078521 412.975244,14.0009357 407.029083,13.7932912 L290.111482,9.71043862 L12.1198214,0.00275590473 C7.5354791,-0.157332857 1.99422221,6.6894348 0.265652865,12.1186363 C-1.44763813,17.4969066 5.46921571,23.5005855 11.1690864,27.2282476 L11.1690864,27.2282476 Z" id="Path"></path>
                                    <path d="M1.95695346,137.198365 L172.968062,137.269533 C172.968062,137.269533 184.722382,140.886127 184.104967,158.566589 C183.487551,176.24705 171.527426,178.52394 171.527426,178.52394 L0.927927928,166.665801 L6.40894505,178.65855 L153.107213,201.483389 L159.233685,201.69733 C173.915597,202.210034 186.060034,195.588559 194.97302,185.243352 C235.793065,151.539745 350.571818,184.776308 360.172391,185.111568 C370.789459,185.456535 400.929625,186.534842 400.929625,186.534842 C411.323618,186.911263 419.778398,176.813823 420.153539,166.809586 C420.503395,156.791012 412.350422,145.628949 402.37026,145.280434 C402.019497,145.30855 373.947982,144.287906 361.613026,143.85716 C350.48872,143.49448 231.140013,167.272411 197.806827,132.236248 C190.067419,123.549804 174.397116,114.549834 162.320762,113.295022 C161.470485,113.212631 156.19429,113.081081 156.19429,113.081081 L8.26119102,125.617166 L1.95695346,137.198365 L1.95695346,137.198365 Z" id="Shape-Copy"></path>
                                </g>
                            </g>
                            <g id="steak" transform="translate(627.515227, 375.967580) rotate(-345.000000) translate(-627.515227, -375.967580) translate(268.515227, 82.967580)">
                                <g id="Capa_1" transform="translate(0.000000, 0.000000)">
                                    <g id="Group" transform="translate(0.000000, -0.000000)">
                                        <path d="M226.442324,102.805059 C275.050569,102.805059 314.457007,133.341578 314.457007,170.981352 C314.457007,208.63608 275.050569,239.172598 226.442324,239.172598 C177.849017,239.172598 138.442579,208.63608 138.442579,170.981352 C138.442579,133.341578 177.849017,102.805059 226.442324,102.805059 L226.442324,102.805059 Z" id="Path" fill="#FFFFFF"></path>
                                        <path d="M332.456766,413.03489 C271.001843,377.354119 207.485477,365.988911 151.438109,355.954629 C94.1807636,345.666125 67.7511548,168.502063 32.885868,128.84347 C6.46409776,173.193106 -16.6066288,272.54974 16.652435,390.133881 C31.7147067,434.755936 213.232807,402.740152 348.440424,481.196228 C483.638008,559.661426 633.213357,539.21694 695.290797,455.792134 C728.298898,411.433115 717.930522,312.242118 703.162871,246.762883 C689.518188,325.410071 612.021395,479.940074 540.453448,479.940074 C478.923835,479.940074 408.924377,457.419017 332.456766,413.03489 Z" id="Shape" fill="#FFFFFF"></path>
                                        <path d="M544.737574,521.842599 C483.207961,521.842599 413.208503,499.321543 336.740893,454.937416 C275.28597,419.256645 211.769603,407.891437 155.722235,397.857155 C98.4648899,387.568651 40.0722565,376.951154 5.20696969,337.292561 C8.89665514,497.571899 184.462943,425.462646 352.72455,523.098754 C559.810014,643.285826 686.693367,577.203125 705.978322,436.184823 C672.457455,490.319102 616.305521,521.842599 544.737574,521.842599 L544.737574,521.842599 Z" id="Shape" fill="#E95C63"></path>
                                        <path d="M171.203947,345.433424 C229.513468,355.424048 295.583433,366.728318 362.012828,403.596832 C431.235984,441.986409 493.515584,461.466397 547.136164,461.483682 L547.136164,461.483682 C594.858807,461.483682 634.151157,445.356948 660.798069,414.901102 C686.611755,385.378635 700.23746,343.151828 700.23746,292.749304 C700.23746,140.677488 546.793071,16.952772 358.206127,16.952772 C145.978421,16.952772 24.2783303,95.2529906 24.2783303,231.785756 C24.2619925,320.249447 82.7185538,330.291925 171.203947,345.433424 L171.203947,345.433424 Z" id="Path" fill="#FFFFFF"></path>
                                        <path d="M182.509673,316.456011 C235.823387,325.099551 296.23265,334.879611 356.970549,366.776964 C420.262845,399.990289 477.206493,416.843695 526.233002,416.85865 L526.233002,416.85865 C569.866893,416.85865 605.792778,402.906362 630.156652,376.557025 C653.758689,351.015216 666.216979,314.482054 666.216979,270.875546 C666.216979,139.308312 525.919304,32.2659997 353.489995,32.2659997 C159.445404,32.2659997 48.1722585,100.00862 48.1722585,218.13201 C48.1573205,294.667712 101.605477,303.356114 182.509673,316.456011 L182.509673,316.456011 Z M226.442324,102.805059 C275.050569,102.805059 314.457007,133.341578 314.457007,170.981352 C314.457007,208.63608 275.050569,239.172598 226.442324,239.172598 C177.849017,239.172598 138.442579,208.63608 138.442579,170.981352 C138.442579,133.341578 177.849017,102.805059 226.442324,102.805059 L226.442324,102.805059 Z" id="Shape" fill="#E95C63"></path>
                                        <path d="M353.071731,428.612667 C578.486118,559.432191 708.999405,469.617141 708.999405,302.578494 C708.999405,135.539848 549.67072,0.0994707719 353.071731,0.0994707719 C156.48768,0.114424993 5.38983279,70.7133013 5.38983279,237.766902 C5.38983279,404.820502 183.002627,329.929764 353.071731,428.612667 L353.071731,428.612667 Z M353.489995,17.2968247 C534.180017,17.2968247 681.169915,131.038628 681.169915,270.860592 C681.169915,318.29538 667.307453,358.357738 641.136081,386.710941 C613.859297,416.215618 574.154099,431.827825 526.24794,431.827825 L526.24794,431.827825 C474.786537,431.827825 415.497624,414.391203 350.039318,380.026404 C291.467428,349.29548 232.327895,339.709825 180.134531,331.245736 C98.0651711,317.921525 33.2491987,307.408708 33.2491987,218.146964 C33.2193227,90.4977354 149.959775,17.2968247 353.489995,17.2968247 L353.489995,17.2968247 Z" id="Shape" fill="#E95C63"></path>
                                        <ellipse id="Oval" fill="#E95C63" cx="226.442324" cy="170.996306" rx="43.6189535" ry="33.796539"></ellipse>
                                    </g>
                                </g>
                            </g>
                        </g>
                    </g>
                </g>
            </g>
        </g>
    </g>
</svg>