<?xml version="1.0" encoding="UTF-8" standalone="no"?>
<svg width="881px" height="977px" viewBox="0 0 881 977" version="1.1" xmlns="http://www.w3.org/2000/svg" xmlns:xlink="http://www.w3.org/1999/xlink" xmlns:sketch="http://www.bohemiancoding.com/sketch/ns">
    <!-- Generator: Sketch 3.4.4 (17249) - http://www.bohemiancoding.com/sketch -->
    <title>logo</title>
    <desc>Created with Sketch.</desc>
    <defs>
        <linearGradient x1="24.698358%" y1="10.876902%" x2="95.3572174%" y2="96.3724083%" id="linearGradient-1">
            <stop stop-color="#EC8365" offset="0%"></stop>
            <stop stop-color="#CE589A" offset="100%"></stop>
        </linearGradient>
        <path d="M431.521612,1.39331307 C430.406219,1.59392097 429.305455,1.8893617 428.186405,1.98054711 L428.186405,1.98054711 C420.14095,2.64072948 412.055269,2.92158055 404.064669,3.95379939 L404.064669,3.95379939 C378.399669,7.26930091 353.637955,13.9987842 329.852665,24.2261398 L329.852665,24.2261398 C308.012913,33.6182371 287.701798,45.5817629 268.933946,60.131307 L268.933946,60.131307 C254.927541,70.9969605 242.018244,83.0370821 230.323079,96.3683891 L230.323079,96.3683891 C217.102934,111.432219 205.462624,127.608511 195.566715,145.021277 L195.566715,145.021277 C185.864628,162.091185 178.22876,180.051064 172.271467,198.751368 L172.271467,198.751368 C168.080517,211.914894 164.759938,225.28997 162.265847,238.862006 L162.265847,238.862006 C160.291054,249.6 158.528368,260.381763 157.943244,271.305775 L157.943244,271.305775 C157.540971,278.772036 156.963161,286.245593 157.058244,293.711854 L157.058244,293.711854 C157.156983,301.655927 157.753079,309.607295 158.473512,317.522188 L158.473512,317.522188 C161.249194,348.153191 169.166653,377.606079 179.38438,406.500912 L179.38438,406.500912 C186.899566,427.743465 195.186384,448.690578 204.716591,469.119757 L204.716591,469.119757 C206.727955,473.438298 209.225702,477.530699 211.566198,481.688754 L211.566198,481.688754 C214.24314,486.4231 216.99688,491.113678 219.71405,495.829787 L219.71405,495.829787 C222.193512,500.130091 224.658347,504.434043 227.134153,508.734347 L227.134153,508.734347 C229.712355,513.198784 232.290558,517.655927 234.879731,522.109422 L234.879731,522.109422 C237.373822,526.395137 239.90814,530.662614 242.39126,534.959271 L242.39126,534.959271 C245.064545,539.587842 247.686632,544.241945 250.345289,548.877812 L250.345289,548.877812 C253.570785,554.505775 256.814566,560.126444 260.05469,565.75076 L260.05469,565.75076 C262.77186,570.459574 265.489029,575.172036 268.206198,579.877204 L268.206198,579.877204 C270.740517,584.257751 273.274835,588.631003 275.805496,593.004255 L275.805496,593.004255 C278.288616,597.300912 280.976529,601.491793 283.210971,605.908815 L283.210971,605.908815 C286.999649,613.437082 289.537624,621.370213 290.923636,629.744681 L290.923636,629.744681 C292.093884,636.802432 292.298678,643.871125 291.823264,650.903343 L291.823264,650.903343 C291.347851,657.906383 289.947211,664.803647 287.478719,671.500304 L287.478719,671.500304 C284.787149,678.813374 281.470227,685.739818 276.997686,692.108207 L276.997686,692.108207 C274.971694,694.993313 272.693368,697.688754 270.422355,700.391489 L270.422355,700.391489 C267.939236,703.353191 265.053843,705.840729 262.190393,708.331915 L262.190393,708.331915 C259.187975,710.95076 255.878368,713.277812 252.499277,715.404255 L252.499277,715.404255 C246.326219,719.285106 239.732603,722.356231 232.725744,724.449848 L232.725744,724.449848 C227.507169,726.007295 222.197169,727.068693 216.75186,727.65228 L216.75186,727.65228 C213.010723,728.049848 209.291529,728.068085 205.557707,728.126444 L205.557707,728.126444 C199.786921,728.213982 194.140475,727.265653 188.512314,726.12766 L188.512314,726.12766 C181.048326,724.617629 174.008554,721.965957 167.323512,718.369605 L167.323512,718.369605 C160.733554,714.827964 154.472727,710.808511 149.246839,705.381155 L149.246839,705.381155 C146.193223,702.207903 143.015269,699.122188 140.239587,695.715502 L140.239587,695.715502 C137.778409,692.699088 135.54031,689.441945 133.645971,686.042553 L133.645971,686.042553 C128.679731,677.150152 125.205558,667.732523 123.589153,657.589058 L123.589153,657.589058 C122.49936,650.720973 122.16657,643.845593 122.696839,637.006687 L122.696839,637.006687 C123.274649,629.525836 124.828884,622.172644 127.432686,615.027356 L127.432686,615.027356 C130.16814,607.513678 134.21281,600.751368 138.275764,593.952584 L138.275764,593.952584 C140.821054,589.692401 143.231033,585.351976 145.714153,581.055319 L145.714153,581.055319 C149.016446,575.358055 152.347996,569.679027 155.635661,563.978116 L155.635661,563.978116 C158.305289,559.345897 160.920062,554.684498 163.578719,550.048632 L163.578719,550.048632 C166.050868,545.744681 168.552273,541.458967 171.031736,537.158663 L171.031736,537.158663 C175.665186,529.119757 178.433554,520.57386 177.950826,511.18541 L177.950826,511.18541 C177.771632,507.782371 176.839091,504.55076 174.999607,501.672948 L174.999607,501.672948 C172.019132,497.01155 167.630702,494.524012 162.196364,493.768997 L162.196364,493.768997 C156.440207,492.97386 150.918099,493.987842 145.491074,495.829787 L145.491074,495.829787 C126.189298,502.380547 109.516921,513.118541 95.3093802,527.613374 L95.3093802,527.613374 C70.3209298,553.094225 53.6302686,583.189058 45.6323554,617.970821 L45.6323554,617.970821 C43.7672727,626.086322 42.4032025,634.314894 41.894876,642.656535 L41.894876,642.656535 C41.5694008,648.109422 41.0245041,653.565957 41.0245041,659.018845 L41.0245041,659.018845 C41.0245041,664.665046 41.5291736,670.311246 41.8765909,675.957447 L41.8765909,675.957447 C42.4434298,685.061398 43.9866942,694.026748 46.0785124,702.88997 L46.0785124,702.88997 C51.9809504,727.94772 62.4180992,750.930091 78.1250207,771.424924 L78.1250207,771.424924 C97.4194835,796.595745 121.899607,814.825532 151.755558,825.789666 L151.755558,825.789666 C163.428781,830.07538 175.460393,832.818237 187.780909,834.521581 L187.780909,834.521581 C199.834463,836.18845 211.928244,836.290578 224.043967,836.020669 L224.043967,836.020669 C227.013471,835.955015 229.968347,835.389666 232.948822,836.042553 L232.948822,836.042553 C234.861446,836.462006 236.843554,836.841337 237.640785,838.876596 L237.640785,838.876596 C238.485558,841.035866 237.348223,842.815805 235.973182,844.358663 L235.973182,844.358663 C234.027645,846.53617 231.639607,848.111854 228.940723,849.26079 L228.940723,849.26079 C215.753492,854.881459 202.218843,859.520973 188.428202,863.398176 L188.428202,863.398176 C176.118657,866.859574 163.662831,869.715502 151.042438,871.75076 L151.042438,871.75076 C142.894587,873.06383 134.680909,874.048632 126.474545,874.942249 L126.474545,874.942249 C115.386446,876.149544 104.250806,876.641945 93.0932231,876.787842 L93.0932231,876.787842 C83.19,876.911854 73.301405,876.528875 63.4054959,876.31003 L63.4054959,876.31003 C56.8923347,876.167781 50.3572314,876.773252 43.8404132,877.196353 L43.8404132,877.196353 C37.469876,877.612158 31.3151033,879.155015 25.3175826,881.277812 L25.3175826,881.277812 C19.462686,883.353191 14.0356612,886.198176 9.62894628,890.684498 L9.62894628,890.684498 C2.87442149,897.559878 0.844772727,905.741033 2.90733471,915.04924 L2.90733471,915.04924 C4.8528719,923.821277 9.42780992,931.170821 15.3192769,937.783587 L15.3192769,937.783587 C23.002686,946.406079 32.0903926,953.281459 42.1764669,958.865653 L42.1764669,958.865653 C57.5432851,967.367781 73.9377273,972.817021 91.301281,975.563526 L91.301281,975.563526 C103.44626,977.485714 115.646095,977.759271 127.834959,977.007903 L127.834959,977.007903 C138.586612,976.344073 149.191983,974.451064 159.526736,971.266869 L159.526736,971.266869 C178.356756,965.46383 196.828388,958.712462 214.937975,950.939818 L214.937975,950.939818 C230.140227,944.41459 245.038946,937.283891 259.553678,929.379939 L259.553678,929.379939 C270.864855,923.2231 282.022438,916.8 292.733864,909.636474 L292.733864,909.636474 C300.720806,904.296657 308.857686,899.172036 316.683719,893.609726 L316.683719,893.609726 C324.272045,888.218845 331.564153,882.404863 338.973285,876.758663 L338.973285,876.758663 C342.791219,873.844377 346.653037,870.981155 350.357603,867.92462 L350.357603,867.92462 C355.316529,863.824924 360.162087,859.590274 365.018616,855.370213 L365.018616,855.370213 C367.552934,853.163526 370.054339,850.916717 372.493574,848.604255 L372.493574,848.604255 C381.486198,840.083891 390.482479,831.563526 399.401963,822.970213 L399.401963,822.970213 C406.225971,816.397568 413.576591,810.558055 422.188884,806.505775 L422.188884,806.505775 C430.570785,802.559271 439.413471,801.48693 448.614545,802.530091 L448.614545,802.530091 C457.161012,803.500304 464.731054,806.742857 471.679401,811.612158 L471.679401,811.612158 C477.040599,815.36535 482.112893,819.432219 486.728058,824.115502 L486.728058,824.115502 C493.402128,830.888754 500.090826,837.680243 507.214711,843.964742 L507.214711,843.964742 C519.304835,854.633435 530.908574,865.885714 544.106777,875.281459 L544.106777,875.281459 C551.45374,880.519149 558.343574,886.387842 565.632025,891.709422 L565.632025,891.709422 C572.141529,896.469301 578.833884,900.995745 585.59938,905.390881 L585.59938,905.390881 C593.816715,910.727052 602.063306,916.03769 610.532975,920.958055 L610.532975,920.958055 C626.316694,930.131307 642.447831,938.651672 659.131178,946.13617 L659.131178,946.13617 C673.517913,952.58845 688.069215,958.613982 702.935021,963.848024 L702.935021,963.848024 C711.529029,966.871733 720.188864,969.775076 728.951095,972.277204 L728.951095,972.277204 C736.985579,974.571429 745.257769,975.858967 753.599442,976.683283 L753.599442,976.683283 C762.533554,977.569605 771.48595,977.646201 780.401777,977.040729 L780.401777,977.040729 C801.06031,975.640122 820.720475,970.398784 839.155537,960.827964 L839.155537,960.827964 C850.605682,954.879027 860.955062,947.500304 869.589298,937.856535 L869.589298,937.856535 C874.434855,932.447416 878.453926,926.505775 880.790764,919.564742 L880.790764,919.564742 C882.75093,913.754407 883.687128,907.841945 881.946384,901.772644 L881.946384,901.772644 C880.000847,894.97386 875.652645,890.027964 869.830661,886.227356 L869.830661,886.227356 C863.613719,882.164134 856.672686,879.950152 849.490289,878.432827 L849.490289,878.432827 C843.653678,877.192705 837.721983,876.703951 831.750062,876.463222 L831.750062,876.463222 C825.160103,876.193313 818.577459,876.419453 811.998471,876.64924 L811.998471,876.64924 C807.533244,876.802432 803.071674,876.955623 798.606446,876.955623 L798.606446,876.955623 C791.59593,876.951976 784.585413,876.521581 777.57124,876.273556 L777.57124,876.273556 C776.997087,876.255319 776.422934,876.19696 775.845124,876.175076 L775.845124,876.175076 C765.272665,875.792097 754.76969,874.730699 744.285,873.319149 L744.285,873.319149 C730.35905,871.444377 716.634236,868.621277 703.044731,865.137994 L703.044731,865.137994 C688.230124,861.344681 673.730021,856.562918 659.584649,850.730699 L659.584649,850.730699 C656.717541,849.548936 653.974773,848.199392 651.87564,845.832219 L651.87564,845.832219 C651.367314,845.259574 650.826074,844.690578 650.431116,844.041337 L650.431116,844.041337 C648.657459,841.108815 649.476632,838.431611 652.738698,837.413982 L652.738698,837.413982 C655.002397,836.706383 657.430661,836.275988 659.796756,836.20304 L659.796756,836.20304 C662.788202,836.115502 665.783306,836.126444 668.778409,836.141033 L668.778409,836.141033 C671.747913,836.151976 674.717417,836.166565 677.686921,836.079027 L677.686921,836.079027 C702.887479,835.353191 727.020186,830.064438 749.657169,818.775684 L749.657169,818.775684 C777.637066,804.820669 799.67064,784.340426 816.200393,757.922188 L816.200393,757.922188 C827.193409,740.352584 834.748822,721.360486 839.305475,701.193921 L839.305475,701.193921 C841.159587,692.972644 842.578512,684.656535 843.075868,676.223708 L843.075868,676.223708 C843.419628,670.482675 843.942583,664.737994 843.949897,658.99696 L843.949897,658.99696 C843.953554,653.544073 843.426942,648.087538 843.068554,642.63465 L843.068554,642.63465 C842.567541,634.880243 841.269298,627.242553 839.652893,619.644985 L839.652893,619.644985 C835.593595,600.55076 828.648905,582.561702 818.763967,565.725228 L818.763967,565.725228 C809.478781,549.902736 798.44188,535.444377 784.888946,522.981155 L784.888946,522.981155 C771.489607,510.66383 756.2325,501.413982 738.920145,495.636474 L738.920145,495.636474 C733.869793,493.94772 728.709731,493.141641 723.330248,493.703343 L723.330248,493.703343 C715.420103,494.524012 709.305558,499.779939 707.590413,507.519757 L707.590413,507.519757 C706.551818,512.195745 706.778554,516.86079 707.831777,521.489362 L707.831777,521.489362 C710.409979,532.770821 714.824008,543.311854 720.719132,553.280243 L720.719132,553.280243 C724.844256,560.250456 728.738988,567.362918 732.787314,574.384195 L732.787314,574.384195 C736.788099,581.317933 740.865682,588.21155 744.877438,595.137994 L744.877438,595.137994 C747.408099,599.511246 750.059442,603.829787 752.337769,608.330699 L752.337769,608.330699 C755.837541,615.246201 758.229236,622.559271 759.578678,630.21155 L759.578678,630.21155 C760.277169,634.16535 760.489277,638.148328 760.818409,642.134954 L760.818409,642.134954 C761.143884,646.059574 760.851322,649.944073 760.577045,653.78845 L760.577045,653.78845 C760.233285,658.497264 759.29343,663.209726 758.178037,667.812766 L758.178037,667.812766 C755.99845,676.796353 751.873326,684.955623 746.907087,692.713678 L746.907087,692.713678 C742.690537,699.297264 737.417107,705.031003 731.521983,710.046201 L731.521983,710.046201 C721.059236,718.953191 709.038595,725.095441 695.529545,728.079027 L695.529545,728.079027 C691.155744,729.045593 686.738058,729.81155 682.221632,729.895441 L682.221632,729.895441 C679.840909,729.93921 677.449215,730.479027 675.08312,730.351368 L675.08312,730.351368 C670.328988,730.088754 665.589483,729.669301 660.864607,728.881459 L660.864607,728.881459 C652.007293,727.404255 643.705847,724.409726 635.781074,720.295441 L635.781074,720.295441 C630.416219,717.516109 625.482893,714.102128 620.951839,710.108207 L620.951839,710.108207 C619.445145,708.784195 617.80314,707.591489 616.446384,706.128875 L616.446384,706.128875 C613.524421,702.981155 610.496405,699.880851 607.969401,696.426748 L607.969401,696.426748 C605.109607,692.520365 602.461921,688.395137 600.23845,684.09848 L600.23845,684.09848 C596.409545,676.708815 593.944711,668.815805 592.427045,660.609119 L592.427045,660.609119 C591.110517,653.496657 590.858182,646.311246 591.406736,639.180547 L591.406736,639.180547 C592.211281,628.679635 594.672459,618.481459 599.554587,609.041945 L599.554587,609.041945 C602.048678,604.216413 604.835331,599.536778 607.541529,594.820669 L607.541529,594.820669 C610.339153,589.944073 613.202603,585.100304 616.03314,580.238298 L616.03314,580.238298 C620.871384,571.914894 625.735227,563.602432 630.536901,555.253495 L630.536901,555.253495 C635.389773,546.824316 640.169504,538.351368 645.007748,529.911246 L645.007748,529.911246 C650.182438,520.894833 655.390041,511.893009 660.57936,502.887538 L660.57936,502.887538 C665.008017,495.202432 669.418388,487.506383 673.89093,479.850456 L673.89093,479.850456 L677.06157,473.292401 C681.267149,464.549544 689.031012,449.212158 695.792851,432.64924 L695.792851,432.64924 C702.839938,414.817021 709.378698,396.809726 714.644814,378.368389 L714.644814,378.368389 C718.268926,365.653495 721.465165,352.829179 723.502128,339.753191 L723.502128,339.753191 C724.752831,331.717933 725.827996,323.646201 726.811736,315.570821 L726.811736,315.570821 C727.265207,311.868693 727.338347,308.119149 727.539483,304.387842 L727.539483,304.387842 C727.722335,300.937386 727.963698,297.48693 727.978326,294.040122 L727.978326,294.040122 C728.022211,284.348936 727.54314,274.683283 726.504545,265.043161 L726.504545,265.043161 C723.546012,237.589058 717.548492,210.842553 707.937831,184.931307 L707.937831,184.931307 C697.336116,156.346505 682.499566,130.168997 662.945455,106.727052 L662.945455,106.727052 C647.227562,87.8808511 629.132603,71.5914894 608.934855,57.6328267 L608.934855,57.6328267 C598.106405,50.1483283 587.204814,42.7768997 575.648616,36.4121581 L575.648616,36.4121581 C553.995372,24.4851064 531.17188,15.5598784 507.159855,9.63647416 L507.159855,9.63647416 C497.084752,7.14893617 486.899938,5.19027356 476.60907,3.95744681 L476.60907,3.95744681 C468.50876,2.98723404 460.33531,2.63343465 452.194773,1.97325228 L452.194773,1.97325228 C451.068409,1.88206687 449.956674,1.59027356 448.833967,1.39331307 L448.833967,1.39331307 L431.521612,1.39331307 Z M442.15624,418.417021 C367.58219,418.241945 306.974318,357.745897 307.16814,282.930091 L307.16814,282.930091 C307.358306,208.767173 368.807293,147.79696 442.613368,148.628571 L442.613368,148.628571 C517.000909,148.004863 577.985455,209.091793 577.820888,283.710638 L577.820888,283.710638 C577.659979,357.315502 517.505579,418.417021 442.478058,418.417021 L442.478058,418.417021 L442.15624,418.417021 L442.15624,418.417021 Z" id="path-2"></path>
    </defs>
    <g id="Page-1" stroke="none" stroke-width="1" fill="none" fill-rule="evenodd" sketch:type="MSPage">
        <g id="Desktop-HD" sketch:type="MSArtboardGroup" transform="translate(-285.000000, -2868.000000)">
            <g id="Work" sketch:type="MSLayerGroup" transform="translate(-34.000000, 1463.000000)">
                <g id="Rectangle-12-+-Just-keep-swimming" transform="translate(0.000000, 1404.000000)">
                    <g id="Rectangle-12-+-Group">
                        <g id="logo" transform="translate(317.000000, 0.000000)">
                            <g id="Group-3">
                                <ellipse id="Path" fill="#FFFFFF" sketch:type="MSShapeGroup" cx="442.5" cy="302.735562" rx="168.22314" ry="167.781155"></ellipse>
                                <mask id="mask-3" sketch:name="Clip 2" fill="white">
                                    <use xlink:href="#path-2"></use>
                                </mask>
                                <use id="Clip-2" fill="url(#linearGradient-1)" sketch:type="MSShapeGroup" xlink:href="#path-2"></use>
                            </g>
                            <g id="Group-20" transform="translate(182.851240, 43.768997)" sketch:type="MSShapeGroup">
                                <path d="M205.305006,239.623951 C205.147754,211.487781 227.525089,185.35769 259.853188,185.412401 C293.428333,185.47076 315.35951,213.140061 314.419655,241.670152 C313.487114,270.109058 289.712795,295.312705 257.951535,294.269544 C227.70794,293.277447 204.93199,268.259818 205.305006,239.623951" id="Fill-4" fill="#BF528A"></path>
                                <path d="M259.995812,262.015076 C259.995812,270.130578 253.398539,276.710517 245.265316,276.710517 C237.128436,276.710517 230.531163,270.130578 230.531163,262.015076 C230.531163,253.899574 237.128436,247.319635 245.265316,247.319635 C253.398539,247.319635 259.995812,253.899574 259.995812,262.015076" id="Fill-6" fill="#FFFFFF"></path>
                                <path d="M150.599207,3.40851064 C78.4205083,40.4699088 13.7313967,112.779939 2.43850413,194.493009 C-0.739450413,217.486322 34.4923264,227.403647 37.7031942,204.191489 C47.8404669,130.823708 104.257388,68.1756839 169.056211,34.9039514 C190.029248,24.1331307 171.52836,-7.33677812 150.599207,3.40851064" id="Fill-8" fill="#EDB39E"></path>
                                <path d="M131.585603,446.817994 C173.641388,470.022857 214.428186,487.493982 263.629798,487.154772 C309.598599,486.837447 348.695851,467.735927 388.16612,446.817994 C408.996533,435.777264 390.521244,404.292766 369.709116,415.322553 C335.563475,433.417386 303.319488,449.188815 263.629798,450.680608 C221.266822,452.270881 185.918021,435.120729 150.042607,415.322553 C129.395045,403.928024 110.949012,435.43076 131.585603,446.817994" id="Fill-10" fill="#EDB39E"></path>
                            </g>
                        </g>
                    </g>
                </g>
            </g>
        </g>
    </g>
</svg>