<?xml version="1.0" encoding="UTF-8" standalone="no"?>
<svg width="1196px" height="503px" viewBox="0 0 1196 503" version="1.1" xmlns="http://www.w3.org/2000/svg" xmlns:xlink="http://www.w3.org/1999/xlink" xmlns:sketch="http://www.bohemiancoding.com/sketch/ns">
    <!-- Generator: Sketch 3.4.4 (17249) - http://www.bohemiancoding.com/sketch -->
    <title>Group</title>
    <desc>Created with Sketch.</desc>
    <defs></defs>
    <g id="Page-1" stroke="none" stroke-width="1" fill="none" fill-rule="evenodd" sketch:type="MSPage">
        <g id="Desktop-HD" sketch:type="MSArtboardGroup" transform="translate(-244.000000, -3866.000000)">
            <g id="Work" sketch:type="MSLayerGroup" transform="translate(-34.000000, 1463.000000)">
                <g id="Rectangle-12-+-Just-keep-swimming" transform="translate(0.000000, 2396.000000)" sketch:type="MSShapeGroup">
                    <g id="Rectangle-12-+-Group">
                        <g id="Group" transform="translate(278.000000, 7.000000)">
                            <path d="M987.373624,482.183113 L1095.36996,482.183113 L1095.36996,345.008576 L1041.37485,265.755514 L987.373624,345.008576 L987.373624,482.183113 L987.373624,482.183113 Z" id="Shape" fill="#FFFFFF"></path>
                            <path d="M838.168569,482.183113 L946.1649,482.183113 L946.1649,345.008576 L892.169792,265.755514 L838.168569,345.008576 L838.168569,482.183113 L838.168569,482.183113 Z" id="Shape" fill="#FFFFFF"></path>
                            <rect id="Rectangle-path" fill="#E6E6E6" x="838.168569" y="345.008576" width="149.208113" height="137.174538"></rect>
                            <path d="M887.537709,272.552313 L1036.74582,272.552313 L987.376682,345.008576 L838.168569,345.008576 L887.537709,272.552313 L887.537709,272.552313 Z" id="Shape" fill="#985F51"></path>
                            <rect id="Rectangle-path" fill="#F2F2F2" x="987.373624" y="465.864052" width="110.18243" height="16.319061"></rect>
                            <rect id="Rectangle-path" fill="#CCCCCC" x="836.288219" y="465.864052" width="151.085406" height="16.319061"></rect>
                            <path d="M943.177742,456.605445 L964.977578,456.605445 L964.977578,404.64688 C964.977578,398.619588 960.103954,393.73276 954.092947,393.73276 L954.062373,393.73276 C948.051366,393.73276 943.177742,398.619588 943.177742,404.64688 L943.177742,456.605445 L943.177742,456.605445 Z" id="Shape" fill="#68847D"></path>
                            <path d="M901.895638,456.605445 L923.649613,456.605445 L923.649613,404.640748 C923.649613,398.616522 918.779046,393.73276 912.774154,393.73276 C906.766205,393.73276 901.895638,398.616522 901.895638,404.640748 L901.895638,456.605445 L901.895638,456.605445 Z" id="Shape" fill="#68847D"></path>
                            <path d="M860.5585,456.605445 L882.367509,456.605445 L882.367509,404.66834 C882.367509,398.628785 877.484713,393.73276 871.461476,393.73276 C865.441296,393.73276 860.5585,398.628785 860.5585,404.66834 L860.5585,456.605445 L860.5585,456.605445 Z" id="Shape" fill="#68847D"></path>
                            <path d="M872.806767,393.803273 L862.671219,456.537999 L868.003465,456.537999 L877.824093,395.762296 C876.377905,394.710739 874.665715,394.036271 872.806767,393.803273" id="Shape" fill="#8DB3A9"></path>
                            <path d="M880.239503,398.178118 L870.810232,456.537999 L873.084998,456.537999 L881.936404,401.755864 C881.584794,400.449849 881.016103,399.241938 880.239503,398.178118" id="Shape" fill="#8DB3A9"></path>
                            <path d="M914.116388,393.803273 L903.98084,456.537999 L909.313086,456.537999 L919.133714,395.762296 C917.687525,394.710739 915.975336,394.036271 914.116388,393.803273" id="Shape" fill="#8DB3A9"></path>
                            <path d="M921.549124,398.178118 L912.119853,456.537999 L914.394619,456.537999 L923.246025,401.755864 C922.894415,400.449849 922.325724,399.241938 921.549124,398.178118" id="Shape" fill="#8DB3A9"></path>
                            <path d="M955.422951,393.803273 L945.287403,456.537999 L950.619649,456.537999 L960.440277,395.762296 C958.994089,394.710739 957.2819,394.036271 955.422951,393.803273" id="Shape" fill="#8DB3A9"></path>
                            <path d="M962.855687,398.178118 L953.426417,456.537999 L955.701182,456.537999 L964.552589,401.755864 C964.200978,400.449849 963.632287,399.241938 962.855687,398.178118" id="Shape" fill="#8DB3A9"></path>
                            <path d="M978.424378,345.008576 L987.373624,345.008576 L1041.37485,265.752449 L1032.4256,265.752449 L978.424378,345.008576 L978.424378,345.008576 Z" id="Shape" fill="#855347"></path>
                            <rect id="Rectangle-path" fill="#855347" x="845.891765" y="336.237425" width="140.751121" height="8.77115038"></rect>
                            <path d="M838.168569,345.008576 L847.114757,345.008576 L901.11598,265.752449 L892.169792,265.752449 L838.168569,345.008576 L838.168569,345.008576 Z" id="Shape" fill="#855347"></path>
                            <path d="M1060.65532,333.502764 C1060.65532,344.177754 1052.02405,352.832405 1041.37485,352.832405 C1030.7287,352.832405 1022.10049,344.177754 1022.10049,333.502764 C1022.10049,322.827774 1030.7287,314.166991 1041.37485,314.166991 C1052.02405,314.166991 1060.65532,322.827774 1060.65532,333.502764" id="Shape" fill="#68847D"></path>
                            <rect id="Rectangle-path" fill="#E6E6E6" x="889.488382" y="217.3563" width="47.4673869" height="102.197238"></rect>
                            <path d="M936.955768,319.553538 L966.078272,282.040852 L966.078272,217.3563 L936.955768,217.3563 L936.955768,319.553538 L936.955768,319.553538 Z" id="Shape" fill="#FFFFFF"></path>
                            <path d="M927.783327,151.939031 L889.488382,217.3563 L966.078272,217.3563 L927.783327,151.939031 L927.783327,151.939031 Z" id="Shape" fill="#985F51"></path>
                            <path d="M927.783327,151.939031 L936.955768,217.3563 L966.078272,217.3563 L927.783327,151.939031 L927.783327,151.939031 Z" id="Shape" fill="#AD6D5C"></path>
                            <path d="M925.435181,245.63184 C925.435181,252.214035 920.112108,257.55153 913.547697,257.55153 C906.983286,257.55153 901.663269,252.214035 901.663269,245.63184 C901.663269,239.049645 906.983286,233.709085 913.547697,233.709085 C920.112108,233.709085 925.435181,239.049645 925.435181,245.63184" id="Shape" fill="#68847D"></path>
                            <rect id="Rectangle-path" fill="#F2F2F2" x="987.376682" y="373.970847" width="110.18243" height="5.71764958"></rect>
                            <rect id="Rectangle-path" fill="#CCCCCC" x="836.288219" y="373.970847" width="151.085406" height="5.71764958"></rect>
                            <rect id="Rectangle-path" fill="#FED991" x="134.107216" y="320.083915" width="224.779861" height="162.099198"></rect>
                            <rect id="Rectangle-path" fill="#754F38" x="147.073991" y="216.749279" width="198.873828" height="90.3603237"></rect>
                            <path d="M134.134733,307.109603 L134.134733,206.35634 L147.073991,206.35634 L147.073991,307.109603 L345.947819,307.109603 L345.947819,206.35634 L358.887077,206.35634 L358.887077,307.109603 L358.862617,307.109603 L358.862617,320.083915 L134.085813,320.083915 L134.085813,307.109603 L134.134733,307.109603 L134.134733,307.109603 Z" id="Shape" fill="#593C2B"></path>
                            <rect id="Rectangle-path" fill="#FED991" x="306.567468" y="190.190567" width="16.7611088" height="54.7514766"></rect>
                            <path d="M190.211985,417.342208 L160.909091,417.342208 L160.909091,361.404281 C160.909091,353.276941 167.467387,346.707009 175.545251,346.707009 C183.653689,346.707009 190.211985,353.276941 190.211985,361.404281 L190.211985,417.342208 L190.211985,417.342208 Z" id="Shape" fill="#68847D"></path>
                            <path d="M237.502038,417.342208 L208.199144,417.342208 L208.199144,361.404281 C208.199144,353.276941 214.75744,346.707009 222.841419,346.707009 C230.952915,346.707009 237.502038,353.276941 237.502038,361.404281 L237.502038,417.342208 L237.502038,417.342208 Z" id="Shape" fill="#68847D"></path>
                            <path d="M284.792091,417.342208 L255.495312,417.342208 L255.495312,361.404281 C255.495312,353.276941 262.047493,346.707009 270.125357,346.707009 C278.23991,346.707009 284.792091,353.276941 284.792091,361.404281 L284.792091,417.342208 L284.792091,417.342208 Z" id="Shape" fill="#68847D"></path>
                            <path d="M332.085202,417.342208 L302.776192,417.342208 L302.776192,361.404281 C302.776192,353.276941 309.334488,346.707009 317.418467,346.707009 C325.526906,346.707009 332.085202,353.276941 332.085202,361.404281 L332.085202,417.342208 L332.085202,417.342208 Z" id="Shape" fill="#68847D"></path>
                            <path d="M223.248064,346.728469 L211.840603,417.326879 L217.689564,417.326879 L228.889115,348.006893 C227.161639,347.228189 225.256828,346.780587 223.248064,346.728469" id="Shape" fill="#8DB3A9"></path>
                            <path d="M231.692825,349.70226 L220.768447,417.323813 L223.263351,417.323813 L233.860579,351.731796 C233.206278,350.983749 232.48777,350.30315 231.692825,349.70226" id="Shape" fill="#8DB3A9"></path>
                            <path d="M175.958011,346.728469 L164.55055,417.326879 L170.399511,417.326879 L181.599062,348.006893 C179.871586,347.228189 177.966775,346.780587 175.958011,346.728469" id="Shape" fill="#8DB3A9"></path>
                            <path d="M184.402772,349.70226 L173.478394,417.323813 L175.973298,417.323813 L186.570526,351.731796 C185.916225,350.983749 185.197717,350.30315 184.402772,349.70226" id="Shape" fill="#8DB3A9"></path>
                            <path d="M270.541174,346.728469 L259.133714,417.326879 L264.979617,417.326879 L276.182226,348.006893 C274.454749,347.228189 272.549939,346.780587 270.541174,346.728469" id="Shape" fill="#8DB3A9"></path>
                            <path d="M278.982878,349.70226 L268.0585,417.323813 L270.553404,417.323813 L281.150632,351.731796 C280.496331,350.983749 279.777823,350.30315 278.982878,349.70226" id="Shape" fill="#8DB3A9"></path>
                            <path d="M317.82817,346.728469 L306.420709,417.326879 L312.26967,417.326879 L323.469221,348.006893 C321.741745,347.228189 319.836934,346.780587 317.82817,346.728469" id="Shape" fill="#8DB3A9"></path>
                            <path d="M326.272931,349.70226 L315.348553,417.323813 L317.843457,417.323813 L328.440685,351.731796 C327.786384,350.983749 327.067876,350.30315 326.272931,349.70226" id="Shape" fill="#8DB3A9"></path>
                            <rect id="Rectangle-path" fill="#E6C483" x="134.085813" y="435.957526" width="224.801264" height="46.2255873"></rect>
                            <path d="M218.36221,220.161474 L190.211985,246.986908 L190.211985,292.590145 L246.487974,292.590145 L246.487974,246.986908 L246.512434,246.986908 L218.36221,220.161474 L218.36221,220.161474 Z" id="Shape" fill="#FED991"></path>
                            <path d="M254.675907,248.075254 L218.371382,213.846001 L218.359152,213.858264 L218.34998,213.846001 L182.045455,248.075254 L187.652874,254.056559 L218.359152,225.103486 L249.068488,254.056559 L254.675907,248.075254 L254.675907,248.075254 Z" id="Shape" fill="#593C2B"></path>
                            <rect id="Rectangle-path" fill="#593C2B" x="198.724011" y="240.279017" width="39.2763962" height="3.31715649"></rect>
                            <rect id="Rectangle-path" fill="#68847D" x="203.707705" y="250.350051" width="29.3090094" height="36.0656459"></rect>
                            <path d="M217.163677,250.350051 L208.125764,286.415697 L213.98084,286.415697 L223.018753,250.350051 L217.163677,250.350051 L217.163677,250.350051 Z" id="Shape" fill="#8DB3A9"></path>
                            <path d="M226.097636,250.350051 L217.059723,286.415697 L219.557684,286.415697 L228.595597,250.350051 L226.097636,250.350051 L226.097636,250.350051 Z" id="Shape" fill="#8DB3A9"></path>
                            <rect id="Rectangle-path" fill="#FFEABF" x="623.952303" y="135.791653" width="223.526294" height="346.39146"></rect>
                            <rect id="Rectangle-path" fill="#534741" x="779.565838" y="93.2909689" width="24.236649" height="42.5006843"></rect>
                            <rect id="Rectangle-path" fill="#534741" x="754.940889" y="73.8049738" width="15.8499796" height="61.9866793"></rect>
                            <path d="M679.742152,230.836464 L650.604362,230.836464 L650.604362,175.208179 C650.604362,167.12376 657.125968,160.584485 665.164085,160.584485 C673.226661,160.584485 679.742152,167.12376 679.742152,175.208179 L679.742152,230.836464 L679.742152,230.836464 Z" id="Shape" fill="#68847D"></path>
                            <path d="M726.769262,230.836464 L697.628414,230.836464 L697.628414,175.208179 C697.628414,167.12376 704.15002,160.584485 712.191194,160.584485 C720.253771,160.584485 726.769262,167.12376 726.769262,175.208179 L726.769262,230.836464 L726.769262,230.836464 Z" id="Shape" fill="#68847D"></path>
                            <path d="M773.796372,230.836464 L744.661639,230.836464 L744.661639,175.208179 C744.661639,167.12376 751.183245,160.584485 759.218304,160.584485 C767.286996,160.584485 773.796372,167.12376 773.796372,175.208179 L773.796372,230.836464 L773.796372,230.836464 Z" id="Shape" fill="#68847D"></path>
                            <path d="M820.832654,230.836464 L791.685691,230.836464 L791.685691,175.208179 C791.685691,167.12376 798.207297,160.584485 806.242356,160.584485 C814.311048,160.584485 820.832654,167.12376 820.832654,175.208179 L820.832654,230.836464 L820.832654,230.836464 Z" id="Shape" fill="#68847D"></path>
                            <path d="M807.061761,160.609011 L795.718508,230.811938 L801.050754,230.811938 L812.219731,161.694292 C810.626784,161.025955 808.88402,160.670327 807.061761,160.609011" id="Shape" fill="#8DB3A9"></path>
                            <path d="M814.797187,163.098412 L803.857521,230.811938 L806.132287,230.811938 L816.802894,164.75699 C816.185283,164.149969 815.515695,163.588934 814.797187,163.098412" id="Shape" fill="#8DB3A9"></path>
                            <path d="M760.028536,160.609011 L748.685283,230.811938 L754.01753,230.811938 L765.186506,161.694292 C763.593559,161.025955 761.850795,160.670327 760.028536,160.609011" id="Shape" fill="#8DB3A9"></path>
                            <path d="M767.763962,163.098412 L756.824297,230.811938 L759.099062,230.811938 L769.76967,164.75699 C769.152059,164.149969 768.48247,163.588934 767.763962,163.098412" id="Shape" fill="#8DB3A9"></path>
                            <path d="M712.998369,160.609011 L701.655116,230.811938 L706.987362,230.811938 L718.156339,161.694292 C716.563392,161.025955 714.820628,160.670327 712.998369,160.609011" id="Shape" fill="#8DB3A9"></path>
                            <path d="M720.733795,163.098412 L709.79413,230.811938 L712.068895,230.811938 L722.739503,164.75699 C722.121892,164.149969 721.452303,163.588934 720.733795,163.098412" id="Shape" fill="#8DB3A9"></path>
                            <path d="M665.974317,160.609011 L654.631064,230.811938 L659.96331,230.811938 L671.132287,161.694292 C669.53934,161.025955 667.796576,160.670327 665.974317,160.609011" id="Shape" fill="#8DB3A9"></path>
                            <path d="M673.709743,163.098412 L662.770077,230.811938 L665.044843,230.811938 L675.71545,164.75699 C675.097839,164.149969 674.428251,163.588934 673.709743,163.098412" id="Shape" fill="#8DB3A9"></path>
                            <path d="M679.742152,339.370636 L650.604362,339.370636 L650.604362,283.742351 C650.604362,275.657932 657.125968,269.118657 665.164085,269.118657 C673.226661,269.118657 679.742152,275.657932 679.742152,283.742351 L679.742152,339.370636 L679.742152,339.370636 Z" id="Shape" fill="#68847D"></path>
                            <path d="M726.769262,339.370636 L697.628414,339.370636 L697.628414,283.742351 C697.628414,275.657932 704.15002,269.118657 712.191194,269.118657 C720.253771,269.118657 726.769262,275.657932 726.769262,283.742351 L726.769262,339.370636 L726.769262,339.370636 Z" id="Shape" fill="#68847D"></path>
                            <path d="M773.796372,339.370636 L744.661639,339.370636 L744.661639,283.742351 C744.661639,275.657932 751.183245,269.118657 759.218304,269.118657 C767.286996,269.118657 773.796372,275.657932 773.796372,283.742351 L773.796372,339.370636 L773.796372,339.370636 Z" id="Shape" fill="#68847D"></path>
                            <path d="M820.832654,339.370636 L791.685691,339.370636 L791.685691,283.742351 C791.685691,275.657932 798.207297,269.118657 806.242356,269.118657 C814.311048,269.118657 820.832654,275.657932 820.832654,283.742351 L820.832654,339.370636 L820.832654,339.370636 Z" id="Shape" fill="#68847D"></path>
                            <path d="M807.061761,269.143183 L795.718508,339.34611 L801.050754,339.34611 L812.219731,270.228464 C810.626784,269.560127 808.88402,269.204499 807.061761,269.143183" id="Shape" fill="#8DB3A9"></path>
                            <path d="M814.797187,271.632584 L803.857521,339.34611 L806.132287,339.34611 L816.802894,273.291162 C816.185283,272.684141 815.515695,272.123106 814.797187,271.632584" id="Shape" fill="#8DB3A9"></path>
                            <path d="M760.028536,269.143183 L748.685283,339.34611 L754.01753,339.34611 L765.186506,270.228464 C763.593559,269.560127 761.850795,269.204499 760.028536,269.143183" id="Shape" fill="#8DB3A9"></path>
                            <path d="M767.763962,271.632584 L756.824297,339.34611 L759.099062,339.34611 L769.76967,273.291162 C769.152059,272.684141 768.48247,272.123106 767.763962,271.632584" id="Shape" fill="#8DB3A9"></path>
                            <path d="M712.998369,269.143183 L701.655116,339.34611 L706.987362,339.34611 L718.156339,270.228464 C716.563392,269.560127 714.820628,269.204499 712.998369,269.143183" id="Shape" fill="#8DB3A9"></path>
                            <path d="M720.733795,271.632584 L709.79413,339.34611 L712.068895,339.34611 L722.739503,273.291162 C722.121892,272.684141 721.452303,272.123106 720.733795,271.632584" id="Shape" fill="#8DB3A9"></path>
                            <path d="M665.974317,269.143183 L654.631064,339.34611 L659.96331,339.34611 L671.132287,270.228464 C669.53934,269.560127 667.796576,269.204499 665.974317,269.143183" id="Shape" fill="#8DB3A9"></path>
                            <path d="M673.709743,271.632584 L662.770077,339.34611 L665.044843,339.34611 L675.71545,273.291162 C675.097839,272.684141 674.428251,272.123106 673.709743,271.632584" id="Shape" fill="#8DB3A9"></path>
                            <rect id="Rectangle-path" fill="#68847D" x="650.604362" y="380.586765" width="108.623115" height="60.3097065"></rect>
                            <rect id="Rectangle-path" fill="#998675" x="617.510192" y="450.047777" width="236.39523" height="32.1353367"></rect>
                            <rect id="Rectangle-path" fill="#534741" x="775.239503" y="380.586765" width="45.5931512" height="90.7128866"></rect>
                            <rect id="Rectangle-path" fill="#998675" x="617.510192" y="244.377943" width="236.39523" height="11.1961696"></rect>
                            <rect id="Rectangle-path" fill="#998675" x="617.510192" y="352.81401" width="236.39523" height="11.1961696"></rect>
                            <rect id="Rectangle-path" fill="#998675" x="617.510192" y="130.193568" width="236.39523" height="11.1961696"></rect>
                            <rect id="Rectangle-path" fill="#736357" x="613.0585" y="112.372283" width="245.292499" height="21.2273489"></rect>
                            <rect id="Rectangle-path" fill="#68847D" x="781.596005" y="393.717432" width="32.8832042" height="64.4515534"></rect>
                            <path d="M720.703221,380.347635 L712.197309,380.347635 L690.794945,440.896472 L699.300856,440.896472 L720.703221,380.347635 L720.703221,380.347635 Z" id="Shape" fill="#8DB3A9"></path>
                            <path d="M730.270077,380.347635 L724.937831,380.347635 L703.532409,440.896472 L708.867713,440.896472 L730.270077,380.347635 L730.270077,380.347635 Z" id="Shape" fill="#8DB3A9"></path>
                            <path d="M807.667142,393.32808 L801.417652,393.32808 L785.689971,458.172051 L791.939462,458.172051 L807.667142,393.32808 L807.667142,393.32808 Z" id="Shape" fill="#8DB3A9"></path>
                            <path d="M814.699348,393.32808 L810.779658,393.32808 L795.051977,458.172051 L798.971667,458.172051 L814.699348,393.32808 L814.699348,393.32808 Z" id="Shape" fill="#8DB3A9"></path>
                            <path d="M834.432328,411.259732 C834.432328,414.904926 831.494089,417.857256 827.861802,417.857256 C824.2234,417.857256 821.279046,414.904926 821.279046,411.259732 C821.279046,407.620671 824.2234,404.665274 827.861802,404.665274 C831.494089,404.665274 834.432328,407.620671 834.432328,411.259732" id="Shape" fill="#F2F2F2"></path>
                            <path d="M821.279046,411.259732 C821.279046,414.904926 818.331635,417.857256 814.705463,417.857256 C811.070118,417.857256 808.122707,414.904926 808.122707,411.259732 C808.122707,407.620671 811.070118,404.665274 814.705463,404.665274 C818.331635,404.665274 821.279046,407.620671 821.279046,411.259732" id="Shape" fill="#A82227"></path>
                            <path d="M808.122707,411.259732 C808.122707,414.904926 805.178353,417.857256 801.546066,417.857256 C797.916837,417.857256 794.969425,414.904926 794.969425,411.259732 C794.969425,407.620671 797.916837,404.665274 801.546066,404.665274 C805.178353,404.665274 808.122707,407.620671 808.122707,411.259732" id="Shape" fill="#F2F2F2"></path>
                            <path d="M794.969425,411.259732 C794.969425,414.904926 792.025071,417.857256 788.389727,417.857256 C784.760497,417.857256 781.816143,414.904926 781.816143,411.259732 C781.816143,407.620671 784.760497,404.665274 788.389727,404.665274 C792.025071,404.665274 794.969425,407.620671 794.969425,411.259732" id="Shape" fill="#A82227"></path>
                            <path d="M781.819201,411.259732 C781.819201,414.904926 778.87179,417.857256 775.239503,417.857256 C771.604158,417.857256 768.662862,414.904926 768.662862,411.259732 C768.662862,407.620671 771.604158,404.665274 775.239503,404.665274 C778.87179,404.665274 781.819201,407.620671 781.819201,411.259732" id="Shape" fill="#F2F2F2"></path>
                            <path d="M768.662862,411.259732 C768.662862,414.904926 765.718508,417.857256 762.086221,417.857256 C758.447819,417.857256 755.503465,414.904926 755.503465,411.259732 C755.503465,407.620671 758.447819,404.665274 762.086221,404.665274 C765.718508,404.665274 768.662862,407.620671 768.662862,411.259732" id="Shape" fill="#A82227"></path>
                            <path d="M755.503465,411.259732 C755.503465,414.904926 752.562169,417.857256 748.923767,417.857256 C745.294537,417.857256 742.350183,414.904926 742.350183,411.259732 C742.350183,407.620671 745.294537,404.665274 748.923767,404.665274 C752.562169,404.665274 755.503465,407.620671 755.503465,411.259732" id="Shape" fill="#F2F2F2"></path>
                            <path d="M742.350183,411.259732 C742.350183,414.904926 739.402772,417.857256 735.770485,417.857256 C732.141256,417.857256 729.187729,414.904926 729.187729,411.259732 C729.187729,407.620671 732.141256,404.665274 735.770485,404.665274 C739.402772,404.665274 742.350183,407.620671 742.350183,411.259732" id="Shape" fill="#A82227"></path>
                            <path d="M729.190787,411.259732 C729.190787,414.904926 726.252548,417.857256 722.617203,417.857256 C718.987974,417.857256 716.037505,414.904926 716.037505,411.259732 C716.037505,407.620671 718.987974,404.665274 722.617203,404.665274 C726.252548,404.665274 729.190787,407.620671 729.190787,411.259732" id="Shape" fill="#F2F2F2"></path>
                            <path d="M716.037505,411.259732 C716.037505,414.904926 713.090094,417.857256 709.463922,417.857256 C705.828577,417.857256 702.881166,414.904926 702.881166,411.259732 C702.881166,407.620671 705.828577,404.665274 709.463922,404.665274 C713.090094,404.665274 716.037505,407.620671 716.037505,411.259732" id="Shape" fill="#A82227"></path>
                            <path d="M702.881166,411.259732 C702.881166,414.904926 699.936812,417.857256 696.31064,417.857256 C692.675296,417.857256 689.727884,414.904926 689.727884,411.259732 C689.727884,407.620671 692.675296,404.665274 696.31064,404.665274 C699.936812,404.665274 702.881166,407.620671 702.881166,411.259732" id="Shape" fill="#F2F2F2"></path>
                            <path d="M689.730942,411.259732 C689.730942,414.904926 686.786588,417.857256 683.151243,417.857256 C679.522014,417.857256 676.574603,414.904926 676.574603,411.259732 C676.574603,407.620671 679.522014,404.665274 683.151243,404.665274 C686.786588,404.665274 689.730942,407.620671 689.730942,411.259732" id="Shape" fill="#A82227"></path>
                            <path d="M676.571545,411.259732 C676.571545,414.904926 673.630249,417.857256 669.997962,417.857256 C666.362617,417.857256 663.418263,414.904926 663.418263,411.259732 C663.418263,407.620671 666.362617,404.665274 669.997962,404.665274 C673.630249,404.665274 676.571545,407.620671 676.571545,411.259732" id="Shape" fill="#F2F2F2"></path>
                            <path d="M663.418263,411.259732 C663.418263,414.904926 660.476967,417.857256 656.84468,417.857256 C653.209336,417.857256 650.264982,414.904926 650.264982,411.259732 C650.264982,407.620671 653.209336,404.665274 656.84468,404.665274 C660.476967,404.665274 663.418263,407.620671 663.418263,411.259732" id="Shape" fill="#A82227"></path>
                            <path d="M650.264982,411.259732 C650.264982,414.904926 647.320628,417.857256 643.688341,417.857256 C640.052996,417.857256 637.1117,414.904926 637.1117,411.259732 C637.1117,407.620671 640.052996,404.665274 643.688341,404.665274 C647.320628,404.665274 650.264982,407.620671 650.264982,411.259732" id="Shape" fill="#F2F2F2"></path>
                            <rect id="Rectangle-path" fill="#C1272D" x="637.1117" y="369.096282" width="197.320628" height="42.1634502"></rect>
                            <rect id="Rectangle-path" fill="#FFFFFF" x="821.279046" y="369.096282" width="13.1532817" height="42.1634502"></rect>
                            <rect id="Rectangle-path" fill="#FFFFFF" x="794.969425" y="369.096282" width="13.1532817" height="42.1634502"></rect>
                            <rect id="Rectangle-path" fill="#FFFFFF" x="768.662862" y="369.096282" width="13.1532817" height="42.1634502"></rect>
                            <rect id="Rectangle-path" fill="#FFFFFF" x="742.350183" y="369.096282" width="13.1532817" height="42.1634502"></rect>
                            <rect id="Rectangle-path" fill="#FFFFFF" x="716.037505" y="369.096282" width="13.1532817" height="42.1634502"></rect>
                            <rect id="Rectangle-path" fill="#FFFFFF" x="689.727884" y="369.096282" width="13.1532817" height="42.1634502"></rect>
                            <rect id="Rectangle-path" fill="#FFFFFF" x="663.418263" y="369.096282" width="13.1532817" height="42.1634502"></rect>
                            <rect id="Rectangle-path" fill="#FFFFFF" x="637.1117" y="369.096282" width="13.1532817" height="42.1634502"></rect>
                            <rect id="Rectangle-path" fill="#736357" x="768.442723" y="473.191228" width="59.1897676" height="8.99188537"></rect>
                            <rect id="Rectangle-path" fill="#998675" x="650.604362" y="70.1843067" width="76.1649001" height="42.1910421"></rect>
                            <rect id="Rectangle-path" fill="#736357" x="647.79148" y="63.5530595" width="81.787607" height="6.63124721"></rect>
                            <rect id="Rectangle-path" fill="#736357" x="766.507338" y="471.299652" width="63.0605381" height="1.8915763"></rect>
                            <rect id="Rectangle-path" fill="#8FEDD1" x="358.440685" y="130.858839" width="224.779861" height="351.324274"></rect>
                            <rect id="Rectangle-path" fill="#754F38" x="371.383" y="33.6557304" width="198.873828" height="90.3633895"></rect>
                            <path d="M583.189971,124.01912 L583.189971,23.2658568 L570.256828,23.2658568 L570.256828,124.01912 L371.383,124.01912 L371.383,23.2658568 L358.440685,23.2658568 L358.440685,124.01912 L358.47126,124.01912 L358.47126,136.990367 L583.238891,136.990367 L583.238891,124.01912 L583.189971,124.01912 L583.189971,124.01912 Z" id="Shape" fill="#593C2B"></path>
                            <rect id="Rectangle-path" fill="#593C2B" x="521.710151" y="0.968556268" width="18.6047697" height="66.5301413"></rect>
                            <path d="M414.545455,229.564172 L385.24256,229.564172 L385.24256,173.626245 C385.24256,165.495839 391.800856,158.928973 399.87872,158.928973 C407.987159,158.928973 414.545455,165.495839 414.545455,173.626245 L414.545455,229.564172 L414.545455,229.564172 Z" id="Shape" fill="#68847D"></path>
                            <path d="M461.835508,229.564172 L432.532613,229.564172 L432.532613,173.626245 C432.532613,165.495839 439.090909,158.928973 447.174888,158.928973 C455.286384,158.928973 461.835508,165.495839 461.835508,173.626245 L461.835508,229.564172 L461.835508,229.564172 Z" id="Shape" fill="#68847D"></path>
                            <path d="M509.125561,229.564172 L479.828781,229.564172 L479.828781,173.626245 C479.828781,165.495839 486.380962,158.928973 494.458826,158.928973 C502.576437,158.928973 509.125561,165.495839 509.125561,173.626245 L509.125561,229.564172 L509.125561,229.564172 Z" id="Shape" fill="#68847D"></path>
                            <path d="M556.421728,229.564172 L527.112719,229.564172 L527.112719,173.626245 C527.112719,165.495839 533.671015,158.928973 541.754994,158.928973 C549.863433,158.928973 556.421728,165.495839 556.421728,173.626245 L556.421728,229.564172 L556.421728,229.564172 Z" id="Shape" fill="#68847D"></path>
                            <path d="M447.581533,158.947367 L436.174073,229.545777 L442.023033,229.545777 L453.222585,160.225791 C451.495108,159.447087 449.590298,158.999485 447.581533,158.947367" id="Shape" fill="#8DB3A9"></path>
                            <path d="M456.026294,161.924224 L445.101916,229.545777 L447.59682,229.545777 L458.194048,163.95376 C457.539747,163.205713 456.821239,162.525114 456.026294,161.924224" id="Shape" fill="#8DB3A9"></path>
                            <path d="M400.29148,158.947367 L388.88402,229.545777 L394.73298,229.545777 L405.932532,160.225791 C404.205055,159.447087 402.300245,158.999485 400.29148,158.947367" id="Shape" fill="#8DB3A9"></path>
                            <path d="M408.736241,161.924224 L397.811863,229.545777 L400.306767,229.545777 L410.903995,163.95376 C410.249694,163.205713 409.531186,162.525114 408.736241,161.924224" id="Shape" fill="#8DB3A9"></path>
                            <path d="M494.874643,158.947367 L483.467183,229.545777 L489.316143,229.545777 L500.515695,160.225791 C498.788219,159.447087 496.883408,158.999485 494.874643,158.947367" id="Shape" fill="#8DB3A9"></path>
                            <path d="M503.319405,161.924224 L492.395026,229.545777 L494.889931,229.545777 L505.487159,163.95376 C504.832858,163.205713 504.11435,162.525114 503.319405,161.924224" id="Shape" fill="#8DB3A9"></path>
                            <path d="M542.164696,158.947367 L530.757236,229.545777 L536.606196,229.545777 L547.805748,160.225791 C546.078272,159.447087 544.173461,158.999485 542.164696,158.947367" id="Shape" fill="#8DB3A9"></path>
                            <path d="M550.609458,161.924224 L539.682022,229.545777 L542.176926,229.545777 L552.777212,163.95376 C552.122911,163.205713 551.401345,162.525114 550.609458,161.924224" id="Shape" fill="#8DB3A9"></path>
                            <path d="M414.545455,332.435878 L385.24256,332.435878 L385.24256,276.497951 C385.24256,268.367545 391.800856,261.800679 399.87872,261.800679 C407.987159,261.800679 414.545455,268.367545 414.545455,276.497951 L414.545455,332.435878 L414.545455,332.435878 Z" id="Shape" fill="#68847D"></path>
                            <path d="M461.835508,332.435878 L432.532613,332.435878 L432.532613,276.497951 C432.532613,268.367545 439.090909,261.800679 447.174888,261.800679 C455.286384,261.800679 461.835508,268.367545 461.835508,276.497951 L461.835508,332.435878 L461.835508,332.435878 Z" id="Shape" fill="#68847D"></path>
                            <path d="M509.125561,332.435878 L479.828781,332.435878 L479.828781,276.497951 C479.828781,268.367545 486.380962,261.800679 494.458826,261.800679 C502.576437,261.800679 509.125561,268.367545 509.125561,276.497951 L509.125561,332.435878 L509.125561,332.435878 Z" id="Shape" fill="#68847D"></path>
                            <path d="M556.421728,332.435878 L527.112719,332.435878 L527.112719,276.497951 C527.112719,268.367545 533.671015,261.800679 541.754994,261.800679 C549.863433,261.800679 556.421728,268.367545 556.421728,276.497951 L556.421728,332.435878 L556.421728,332.435878 Z" id="Shape" fill="#68847D"></path>
                            <path d="M447.581533,261.819073 L436.174073,332.417483 L442.023033,332.417483 L453.222585,263.097497 C451.495108,262.318793 449.590298,261.871191 447.581533,261.819073" id="Shape" fill="#8DB3A9"></path>
                            <path d="M456.026294,264.792864 L445.101916,332.414418 L447.59682,332.414418 L458.194048,266.8224 C457.539747,266.074354 456.821239,265.393754 456.026294,264.792864" id="Shape" fill="#8DB3A9"></path>
                            <path d="M400.29148,261.819073 L388.88402,332.417483 L394.73298,332.417483 L405.932532,263.097497 C404.205055,262.318793 402.300245,261.871191 400.29148,261.819073" id="Shape" fill="#8DB3A9"></path>
                            <path d="M408.736241,264.792864 L397.811863,332.414418 L400.306767,332.414418 L410.903995,266.8224 C410.249694,266.074354 409.531186,265.393754 408.736241,264.792864" id="Shape" fill="#8DB3A9"></path>
                            <path d="M494.874643,261.819073 L483.467183,332.417483 L489.316143,332.417483 L500.515695,263.097497 C498.788219,262.318793 496.883408,261.871191 494.874643,261.819073" id="Shape" fill="#8DB3A9"></path>
                            <path d="M503.319405,264.792864 L492.395026,332.414418 L494.889931,332.414418 L505.487159,266.8224 C504.832858,266.074354 504.11435,265.393754 503.319405,264.792864" id="Shape" fill="#8DB3A9"></path>
                            <path d="M542.164696,261.819073 L530.757236,332.417483 L536.606196,332.417483 L547.805748,263.097497 C546.078272,262.318793 544.173461,261.871191 542.164696,261.819073" id="Shape" fill="#8DB3A9"></path>
                            <path d="M550.609458,264.792864 L539.682022,332.414418 L542.176926,332.414418 L552.777212,266.8224 C552.122911,266.074354 551.401345,265.393754 550.609458,264.792864" id="Shape" fill="#8DB3A9"></path>
                            <rect id="Rectangle-path" fill="#68847D" x="479.24786" y="380.019599" width="29.3028944" height="55.9379272"></rect>
                            <rect id="Rectangle-path" fill="#68847D" x="527.112719" y="380.019599" width="29.3090094" height="55.9379272"></rect>
                            <rect id="Rectangle-path" fill="#7ED1B8" x="351.964941" y="449.977264" width="237.713004" height="32.2058492"></rect>
                            <rect id="Rectangle-path" fill="#754F38" x="385.24256" y="380.019599" width="47.290053" height="88.085527"></rect>
                            <path d="M408.89523,455.066432 L408.883,455.066432 C400.795964,455.066432 394.237668,448.490369 394.237668,440.381423 L394.237668,407.743301 C394.237668,399.63129 400.795964,393.058292 408.883,393.058292 L408.89523,393.058292 C416.982267,393.058292 423.540563,399.63129 423.540563,407.743301 L423.540563,440.381423 C423.540563,448.490369 416.982267,455.066432 408.89523,455.066432" id="Shape" fill="#68847D"></path>
                            <path d="M380.414798,467.338685 L380.414798,470.14999 L382.686506,470.14999 L382.686506,482.183113 L435.088667,482.183113 L435.088667,470.14999 L437.360375,470.14999 L437.360375,467.338685 L380.414798,467.338685 L380.414798,467.338685 Z" id="Shape" fill="#593C2B"></path>
                            <path d="M458.778027,395.676455 L450.241541,395.676455 C448.553812,395.676455 447.18406,394.302993 447.18406,392.610691 L447.18406,383.085363 C447.18406,381.389995 448.553812,380.019599 450.241541,380.019599 L458.778027,380.019599 C460.465756,380.019599 461.835508,381.389995 461.835508,383.085363 L461.835508,392.610691 C461.835508,394.302993 460.465756,395.676455 458.778027,395.676455" id="Shape" fill="#7ED1B8"></path>
                            <rect id="Rectangle-path" fill="#7ED1B8" x="351.964941" y="349.689997" width="237.713004" height="10.7301735"></rect>
                            <path d="M465.547289,70.3283976 L410.598247,109.027535 L531.041582,109.027535 L476.09254,70.3283976 C472.928047,68.0995873 468.711781,68.0995873 465.547289,70.3283976" id="Shape" fill="#7ED1B8"></path>
                            <path d="M467.30534,81.3130295 L427.952507,109.027535 L513.687322,109.027535 L474.334488,81.3130295 C472.224827,79.8291998 469.415002,79.8291998 467.30534,81.3130295" id="Shape" fill="#8FEDD1"></path>
                            <path d="M492.700775,380.019599 L483.662862,435.957526 L489.517937,435.957526 L498.55585,380.019599 L492.700775,380.019599 L492.700775,380.019599 Z" id="Shape" fill="#8DB3A9"></path>
                            <path d="M501.63779,380.019599 L492.599878,435.957526 L495.097839,435.957526 L504.135752,380.019599 L501.63779,380.019599 L501.63779,380.019599 Z" id="Shape" fill="#8DB3A9"></path>
                            <path d="M408.89523,393.058292 L408.883,393.058292 C408.354056,393.058292 407.855687,393.159463 407.34203,393.214646 L399.456788,451.534672 C401.03139,452.874411 402.875051,453.876916 404.917448,454.453279 L413.126784,393.754221 C411.778435,393.343408 410.375051,393.058292 408.89523,393.058292" id="Shape" fill="#8DB3A9"></path>
                            <path d="M416.037505,394.995855 L407.929066,454.968328 C408.250102,454.989788 408.55585,455.066432 408.883,455.066432 L408.89523,455.066432 C409.421117,455.066432 409.922544,454.965262 410.433143,454.910078 L418.321443,396.590052 C417.612108,395.986097 416.853852,395.45572 416.037505,394.995855" id="Shape" fill="#8DB3A9"></path>
                            <path d="M540.568691,380.019599 L531.530779,435.957526 L537.385854,435.957526 L546.423767,380.019599 L540.568691,380.019599 L540.568691,380.019599 Z" id="Shape" fill="#8DB3A9"></path>
                            <path d="M549.50265,380.019599 L540.464737,435.957526 L542.962699,435.957526 L552.000611,380.019599 L549.50265,380.019599 L549.50265,380.019599 Z" id="Shape" fill="#8DB3A9"></path>
                            <path d="M336.582756,449.876094 C327.923971,449.876094 320.081533,453.318947 314.287607,458.88944 C306.576641,446.693831 293.028944,438.566491 277.558092,438.566491 C253.535467,438.566491 234.059315,458.095407 234.056258,482.183113 L368.805544,482.183113 C368.799429,464.340368 354.374236,449.876094 336.582756,449.876094" id="Shape" fill="#85BC02"></path>
                            <path d="M1029.42621,378.75957 C1029.42621,414.003591 1012.21565,442.573444 990.984509,442.573444 C969.753363,442.573444 952.542805,414.003591 952.542805,378.75957 C952.542805,343.515549 969.753363,314.945695 990.984509,314.945695 C1012.21565,314.945695 1029.42621,343.515549 1029.42621,378.75957" id="Shape" fill="#C6F81C"></path>
                            <path d="M952.542805,378.75957 C952.542805,414.003591 969.753363,442.573444 990.984509,442.573444 L990.984509,314.945695 C969.753363,314.945695 952.542805,343.515549 952.542805,378.75957" id="Shape" fill="#85BC02"></path>
                            <path d="M1010.81533,400.967963 L1006.55014,397.678399 L991.094578,417.83273 L969.851203,388.634395 L965.506523,391.813592 L986.948634,421.28478 L984.264166,482.183113 L997.707909,482.183113 L995.032613,421.542304 L1010.81533,400.967963 L1010.81533,400.967963 Z" id="Shape" fill="#754C24"></path>
                            <path d="M103.605789,393.61013 C103.605789,423.792575 88.8656747,448.260436 70.6858948,448.260436 C52.5030575,448.260436 37.7629433,423.792575 37.7629433,393.61013 C37.7629433,363.427685 52.5030575,338.959823 70.6858948,338.959823 C88.8656747,338.959823 103.605789,363.427685 103.605789,393.61013" id="Shape" fill="#C6F81C"></path>
                            <path d="M37.7629433,393.61013 C37.7629433,423.792575 52.5030575,448.260436 70.6828373,448.260436 L70.6828373,338.959823 C52.5030575,338.959823 37.7629433,363.427685 37.7629433,393.61013" id="Shape" fill="#85BC02"></path>
                            <path d="M87.6671423,412.630129 L84.0165104,409.812692 L70.7806767,427.072942 L52.5856095,402.068572 L48.8646555,404.790971 L67.2278842,430.028339 L64.9286588,482.183113 L76.4400734,482.183113 L74.1500204,430.249074 L87.6671423,412.630129 L87.6671423,412.630129 Z" id="Shape" fill="#754C24"></path>
                            <path d="M1158.62923,379.912297 C1158.62923,405.876251 1137.62434,426.941114 1111.71525,426.941114 C1085.80921,426.941114 1064.80432,405.876251 1064.80432,379.912297 C1064.80432,353.939146 1085.80921,332.877348 1111.71525,332.877348 C1137.62434,332.877348 1158.62923,353.939146 1158.62923,379.912297" id="Shape" fill="#C6F81C"></path>
                            <path d="M1111.71219,426.941114 L1111.71219,332.874282 C1085.81227,332.874282 1064.80738,353.942211 1064.80738,379.900034 C1064.80738,405.882383 1085.81227,426.941114 1111.71219,426.941114" id="Shape" fill="#85BC02"></path>
                            <path d="M1134.26722,389.833109 L1129.41806,386.089811 L1111.84366,409.009462 L1087.68651,375.807239 L1082.74562,379.418709 L1107.12903,412.936705 L1104.0746,482.180048 L1119.36201,482.180048 L1116.31981,413.224887 L1134.26722,389.833109 L1134.26722,389.833109 Z" id="Shape" fill="#754C24"></path>
                            <path d="M176.664289,378.161746 C176.664289,404.570236 155.298614,425.996859 128.949246,425.996859 C102.599878,425.996859 81.234203,404.570236 81.234203,378.161746 C81.234203,351.744059 102.599878,330.320501 128.949246,330.320501 C155.298614,330.320501 176.664289,351.744059 176.664289,378.161746" id="Shape" fill="#C6F81C"></path>
                            <path d="M128.943131,425.996859 L128.943131,330.320501 C102.599878,330.320501 81.234203,351.747125 81.234203,378.152549 C81.234203,404.576367 102.599878,425.996859 128.943131,425.996859" id="Shape" fill="#85BC02"></path>
                            <path d="M151.886466,388.251175 L146.954749,384.446562 L129.080717,407.755564 L104.507746,373.989241 L99.4843049,377.662026 L124.28353,411.750255 L121.17713,482.183113 L136.727477,482.183113 L133.633306,412.047634 L151.886466,388.251175 L151.886466,388.251175 Z" id="Shape" fill="#754C24"></path>
                            <path d="M1084.23461,404.548775 C1084.23461,424.255505 1068.28985,440.249595 1048.62413,440.249595 C1028.95536,440.249595 1013.0106,424.255505 1013.0106,404.548775 C1013.0106,384.832848 1028.95536,368.841824 1048.62413,368.841824 C1068.28985,368.841824 1084.23461,384.832848 1084.23461,404.548775" id="Shape" fill="#C6F81C"></path>
                            <path d="M1048.61802,440.249595 L1048.61802,368.841824 C1028.95536,368.841824 1013.0106,384.832848 1013.0106,404.539578 C1013.0106,424.261637 1028.95536,440.249595 1048.61802,440.249595" id="Shape" fill="#85BC02"></path>
                            <path d="M1065.73991,412.078291 L1062.0587,409.239394 L1048.71892,426.634538 L1030.38015,401.433959 L1026.62862,404.174752 L1045.13861,429.614461 L1042.82104,482.183113 L1054.42417,482.183113 L1052.11578,429.838261 L1065.73991,412.078291 L1065.73991,412.078291 Z" id="Shape" fill="#754C24"></path>
                            <path d="M1188.04466,502.006098 L9.18038972,502.006098 C4.11089375,502.006098 0,497.884067 0,492.799013 C0,487.713959 4.11089375,483.591928 9.18038972,483.591928 L1188.04466,483.591928 C1193.11597,483.591928 1197.22687,487.713959 1197.22687,492.799013 C1197.22687,497.884067 1193.11597,502.006098 1188.04466,502.006098" id="Shape" fill="#5A736E"></path>
                        </g>
                    </g>
                </g>
            </g>
        </g>
    </g>
</svg>