<?xml version="1.0" standalone="no"?>
<!DOCTYPE svg PUBLIC "-//W3C//DTD SVG 20010904//EN"
 "http://www.w3.org/TR/2001/REC-SVG-20010904/DTD/svg10.dtd">
<svg version="1.0" xmlns="http://www.w3.org/2000/svg"
 width="445.000000pt" height="445.000000pt" viewBox="0 0 445.000000 445.000000"
 preserveAspectRatio="xMidYMid meet">
<metadata>
Created by potrace 1.11, written by Peter Selinger 2001-2013
</metadata>
<g transform="translate(0.000000,445.000000) scale(0.100000,-0.100000)"
fill="#000000" stroke="none">
<path d="M2010 4440 c-30 -4 -80 -11 -110 -14 -89 -12 -271 -54 -366 -86 -349
-118 -620 -286 -879 -545 -239 -238 -403 -493 -519 -806 -33 -90 -79 -250 -90
-314 -3 -16 -8 -41 -10 -55 -9 -45 -17 -104 -25 -180 -9 -78 -6 -409 3 -470 3
-19 8 -55 11 -80 36 -272 178 -642 341 -885 109 -163 145 -206 304 -365 347
-347 801 -565 1298 -624 115 -14 445 -14 522 -1 19 3 62 11 95 16 33 6 74 12
90 15 148 26 362 101 545 191 230 115 394 234 585 427 225 227 351 422 501
771 49 115 105 347 128 535 13 104 14 446 2 520 -4 19 -12 67 -18 105 -7 39
-12 72 -13 75 -7 27 -26 121 -27 127 -3 38 -103 296 -158 408 -99 200 -179
320 -331 494 -269 308 -633 540 -1036 660 -55 16 -113 32 -129 35 -98 18 -195
35 -234 41 -64 10 -414 13 -480 5z"/>
</g>
</svg>
