<?xml version="1.0" encoding="UTF-8" standalone="no"?>
<svg width="1119px" height="928px" viewBox="0 0 1119 928" version="1.1" xmlns="http://www.w3.org/2000/svg" xmlns:xlink="http://www.w3.org/1999/xlink" xmlns:sketch="http://www.bohemiancoding.com/sketch/ns">
    <!-- Generator: Sketch 3.4.4 (17249) - http://www.bohemiancoding.com/sketch -->
    <title>Logo</title>
    <desc>Created with Sketch.</desc>
    <defs></defs>
    <g id="Page-1" stroke="none" stroke-width="1" fill="none" fill-rule="evenodd" sketch:type="MSPage">
        <g id="Desktop-HD" sketch:type="MSArtboardGroup" transform="translate(-200.000000, -1477.000000)">
            <g id="Work" sketch:type="MSLayerGroup" transform="translate(-34.000000, 1463.000000)">
                <g id="Rectangle-12-+-Just-keep-swimming" transform="translate(0.000000, 14.000000)" sketch:type="MSShapeGroup">
                    <g id="Rectangle-12-+-Group">
                        <g id="Logo" transform="translate(234.000000, 0.000000)">
                            <path d="M991.045664,499.917258 C991.045664,735.796067 794.984132,927.032348 553.131269,927.032348 C311.245674,927.032348 115.151411,735.796067 115.151411,499.917258 C115.151411,264.03845 311.245674,72.8348976 553.131269,72.8348976 C794.984132,72.8348976 991.045664,264.03845 991.045664,499.917258 L458,402" id="Fill-6" fill="#FFFFFF"></path>
                            <path d="M617.775931,855.650125 C650.932914,837.420002 691.585405,827.044869 708.769429,792.057434 C714.006465,795.984929 715.806696,803.512628 725.626138,802.661671 C727.982805,783.678778 721.731093,773.729123 718.850723,760.244724 C703.630588,763.157616 676.398001,753.437066 671.684669,767.314215 C669.622586,781.256822 690.177952,771.470814 698.622672,774.416435 C687.199388,816.604278 644.84486,826.292099 607.661905,841.511143 C575.945106,823.870144 521.250813,823.771957 493.134476,845.045888 C452.416522,837.092711 423.023658,817.29159 405.51232,784.987943 C404.955885,775.005559 426.264074,787.933564 425.707639,777.918452 C413.433336,744.436556 354.353025,776.151079 375.202974,809.731162 C388.590147,813.16772 376.577696,789.995499 388.65561,792.057434 C406.85431,828.321305 440.731386,848.187884 483.020451,859.184871 C491.170588,910.013203 615.059218,916.297195 617.775931,855.650125" id="Fill-11" fill="#332F2D"></path>
                            <path d="M557.124509,671.941543 C542.100762,675.672663 481.776655,635.186735 483.020451,626.022579 C483.609617,621.800522 508.714658,607.726998 520.105211,604.846835 C562.165156,594.046224 607.98922,607.006957 631.294029,618.920359 C628.773706,649.751195 589.594131,663.82472 557.124509,671.941543 L557.124509,671.941543 Z M550.414556,799.094196 C549.792658,802.105275 551.691084,802.432567 553.785898,802.661671 C599.380842,786.428024 647.659767,747.774927 671.684669,696.684762 C680.129389,678.749201 693.876608,647.72199 691.91272,633.059341 C686.57749,592.442496 609.920377,562.36443 553.785898,565.964634 C496.99679,569.597567 430.093657,603.112191 429.111713,650.765798 C428.260694,691.186269 511.464102,777.165682 550.414556,799.094196 L550.414556,799.094196 Z" id="Fill-12" fill="#332F2D"></path>
                            <path d="M415.626345,410.501287 C417.001067,365.629656 495.491142,366.153322 479.68184,424.640269 C475.00124,441.82306 457.064392,451.18359 435.854396,442.313997 C416.18278,434.098987 415.29903,420.352754 415.626345,410.501287 L415.626345,410.501287 Z M277.499524,746.105741 C329.313447,700.743173 310.034609,629.590054 354.974923,569.499379 C402.304635,506.168521 541.184281,515.987259 513.362527,375.18656 C499.680771,306.095376 427.769722,220.115963 368.460291,255.070669 C352.323674,264.562116 348.428628,292.381873 334.746872,315.128615 C323.323588,334.176966 305.975906,355.123606 290.952159,364.615053 C239.040041,397.311449 171.384084,390.503791 129.258676,417.570778 C93.7777582,440.35025 64.4830887,487.349274 71.9458648,555.360397 C81.8635016,645.430951 164.445011,758.935559 277.499524,746.105741 L277.499524,746.105741 Z" id="Fill-13" fill="#332F2D"></path>
                            <path d="M654.860691,403.464525 C661.832495,364.942344 720.421834,370.048088 718.850723,414.036033 C718.130631,435.375422 706.3473,454.587419 675.056011,442.313997 C658.068375,435.637255 650.114627,429.811471 654.860691,403.464525 L654.860691,403.464525 Z M843.55764,742.603725 C995.464413,771.60173 1123.08443,515.398135 995.169829,421.105524 C945.025211,384.154341 872.754115,390.700166 826.6682,361.080307 C788.077791,336.206172 781.073256,310.677454 759.274094,258.605415 C651.227497,212.064598 560.463119,392.009331 624.518614,477.661453 C658.821199,523.514958 734.627294,523.613145 769.420851,576.568871 C808.043991,635.415838 791.350939,698.681238 836.814957,739.068979 C836.913151,742.472808 840.906391,741.818226 843.55764,742.603725 L843.55764,742.603725 Z" id="Fill-14" fill="#332F2D"></path>
                            <path d="M371.831633,134.954778 C331.310067,72.933085 278.579662,14.6752414 199.991392,4.23465029 C152.988995,-1.98388359 100.716831,3.25277652 58.4932289,36.0146313 C-21.6661517,98.2326992 -17.3128656,279.028389 65.2359126,339.871834 C89.8827128,358.036499 140.321915,372.470043 186.506025,353.978087 C247.877539,329.431243 278.448736,250.063113 321.261505,195.012724 C338.24914,173.182397 358.575385,159.665268 371.831633,134.954778" id="Fill-15" fill="#332F2D"></path>
                            <path d="M749.160068,134.954778 C746.476088,150.010176 761.990806,155.148649 769.420851,163.232743 C818.550794,216.646676 861.75634,324.521874 931.147066,353.978087 C977.756685,373.811937 1045.34718,350.836091 1069.27389,325.765581 C1148.90956,242.175394 1135.12961,43.1495807 1005.25112,7.80212498 C896.353508,-21.883192 800.384826,41.2840205 749.160068,134.954778" id="Fill-16" fill="#332F2D"></path>
                        </g>
                    </g>
                </g>
            </g>
        </g>
    </g>
</svg>