<?xml version="1.0" encoding="UTF-8" standalone="no"?>
<svg width="1330px" height="302px" viewBox="0 0 1330 302" version="1.1" xmlns="http://www.w3.org/2000/svg" xmlns:xlink="http://www.w3.org/1999/xlink" xmlns:sketch="http://www.bohemiancoding.com/sketch/ns">
    <!-- Generator: Sketch 3.4.4 (17249) - http://www.bohemiancoding.com/sketch -->
    <title>Group</title>
    <desc>Created with Sketch.</desc>
    <defs>
        <path id="path-1" d="M0.956146657,183.567527 C0.387553982,188.684509 3.82458663,198.864816 3.82458663,198.864816 C3.82458663,198.864816 44.6687637,192.61781 64.061826,194.084411 C82.5959144,195.486053 105.176132,207.469543 105.176132,207.469543 C105.176132,207.469543 119.264176,207.029819 122.386772,204.601301 C126.287942,201.567266 131.810712,196.912477 135.772825,192.17225 C143.205586,183.279781 148.202732,174.006714 148.202732,174.006714 C148.202732,174.006714 224.661401,155.446647 259.115744,139.587803 C284.89864,127.720303 328.91445,90.8276803 328.91445,90.8276803 L362.379583,96.5641653 C362.379583,96.5641653 392.69132,115.980445 410.186916,120.466186 C429.981039,125.541253 474.248742,125.246591 474.248742,125.246591 C474.248742,125.246591 507.486435,153.261705 527.792955,158.70942 C546.688448,163.778594 591.854781,156.797259 591.854781,156.797259 C591.854781,156.797259 640.24632,183.204037 660.69734,198.864816 C679.443072,213.219736 701.233644,239.357899 718.066135,256.229657 C728.087389,266.274288 739.101366,272.483041 739.101366,272.483041 C739.101366,272.483041 749.647148,282.415884 766.829615,288.736405 C779.889871,293.540584 798.340963,294.830963 809.856219,296.385062 C820.496837,297.82112 838.00029,301.972118 853.83896,301.165456 C875.638112,300.055228 894.953271,293.516819 894.953271,293.516819 C894.953271,293.516819 917.652792,288.885479 930.330693,284.912082 C939.006734,282.192913 959.015097,273.439122 959.015097,273.439122 C959.015097,273.439122 981.724031,263.807359 994.392523,260.05399 C1007.53999,256.158712 1036.46298,250.493181 1036.46298,250.493181 C1036.46298,250.493181 1092.00464,254.668398 1116.7793,250.493181 C1148.73601,245.107589 1206.65708,221.810756 1206.65708,221.810756 C1206.65708,221.810756 1246.66846,216.351904 1264.98203,212.249948 C1286.50791,207.428483 1326.17541,195.040492 1326.17541,195.040492 C1326.17541,195.040492 1330.30991,189.930388 1329.04385,188.347926 C1327.76019,186.743452 1318.52624,185.479684 1318.52624,185.479684 C1318.52624,185.479684 1280.05583,189.148182 1263.06973,189.304007 C1245.31583,189.466876 1214.30625,186.435765 1214.30625,186.435765 C1214.30625,186.435765 1196.63348,188.707349 1175.10424,189.304007 C1148.90073,190.030208 1116.46783,189.251103 1096.70022,191.216169 C1078.20887,193.054363 1050.80518,202.689139 1050.80518,202.689139 L1023.07692,198.864816 C1023.07692,198.864816 1024.06395,185.993915 1023.07692,179.743199 C1022.60238,176.737969 1015.84826,155.178871 997.260959,144.368212 C993.680943,142.286021 981.120557,140.003777 971.444999,135.763485 C961.568383,131.435079 949.741023,123.248063 940.848306,122.378346 C935.597893,121.864849 938.361415,132.72234 933.199133,132.895242 C913.430607,133.557359 901.745494,139.542091 899.734004,139.587803 C897.603747,139.636215 890.948977,142.045508 887.431009,146.280374 C885.765054,148.285821 888.013088,154.860135 889.148647,161.577668 C890.583964,170.068459 890.172538,178.787118 890.172538,178.787118 C890.172538,178.787118 841.640774,137.66485 816.549245,122.378348 C793.514725,108.345037 747.706686,87.9594377 747.706686,87.9594377 C747.706686,87.9594377 708.360369,69.480025 688.425593,63.1013358 C668.520925,56.7322804 628.188354,49.7162039 628.188354,49.7162039 C628.188354,49.7162039 549.420475,16.346888 512.494608,10.5168893 C480.987577,5.54243733 433.366013,0.484476171 398.713156,0.956080836 C374.075485,1.2913848 355.686556,6.69256591 355.686556,6.69256591 C355.686556,6.69256591 327.500989,3.46832527 313.616104,3.82432347 C302.641176,4.1057125 281.107117,8.6047276 281.107117,8.6047276 C281.107117,8.6047276 274.381063,9.68252613 267.721064,16.2533738 C245.546268,38.1313363 201.345951,87.8399536 169.237954,107.081052 C144.815598,121.716439 103.587485,137.417164 69.798709,149.148617 C34.7989262,161.30053 6.6930266,173.050633 6.6930266,173.050633 C6.6930266,173.050633 1.34370064,180.079781 0.956146657,183.567527 Z"></path>
        <path id="path-3" d="M795.514019,169.22631 C777.214651,148.69225 749.216431,128.556096 732.408339,114.729701 C700.669783,88.6214544 627.232207,49.7162039 627.232207,49.7162039 C627.232207,49.7162039 627.210971,88.8093432 631.056794,108.037135 C634.541428,125.459109 649.22358,159.665501 649.22358,159.665501 C649.22358,159.665501 704.658219,252.956227 732.408337,260.972376 C762.027018,269.528295 821.329978,209.381705 821.329978,209.381705 C821.329978,209.381705 813.099746,188.959579 795.514019,169.22631 Z"></path>
        <path id="path-5" d="M875.114005,161.348065 C853.72891,143.466932 808.900072,117.597944 808.900072,117.597944 C808.900072,117.597944 808.785423,188.607433 824.198418,217.986433 C839.382116,246.928365 900.690151,292.560739 900.690151,292.560739 C900.690151,292.560739 927.033372,292.567427 937.979875,288.736415 C946.156305,285.874861 958.05895,272.483041 958.05895,272.483041 C958.05895,272.483041 983.140726,244.477783 999.173261,232.327645 C1013.4187,221.531843 1048.89288,203.64522 1048.89288,203.64522 C1048.89288,203.64522 1010.34531,193.965495 989.611795,195.040492 C967.318715,196.19635 919.813084,210.337786 919.813084,210.337786 C919.813084,210.337786 890.699914,174.380213 875.114005,161.348065 Z"></path>
    </defs>
    <g id="Welcome" stroke="none" stroke-width="1" fill="none" fill-rule="evenodd" sketch:type="MSPage">
        <g id="Logo" sketch:type="MSArtboardGroup" transform="translate(-85.000000, -456.000000)">
            <g sketch:type="MSLayerGroup" transform="translate(85.000000, 456.000000)" id="Group">
                <g>
                    <g id="Path-136">
                        <mask id="mask-2" sketch:name="Mask" fill="white">
                            <use xlink:href="#path-1"></use>
                        </mask>
                        <use id="Mask" fill="#A7EFFF" sketch:type="MSShapeGroup" xlink:href="#path-1"></use>
                        <path d="M868.615635,107.20442 C868.615635,136.441989 880.529316,204.662983 880.529316,204.662983 L950.928339,225.237569 L991.001629,165.679558 L1018.07818,120.198895 C1018.07818,120.198895 868.615635,77.9668508 868.615635,107.20442 Z" id="Path-147" fill="#00BBE8" sketch:type="MSShapeGroup" mask="url(#mask-2)"></path>
                        <path d="M169.237958,168.270229 C169.237958,168.270229 210.084659,132.597453 233.299784,117.597944 C251.517681,105.82719 293.537024,87.9594377 293.537024,87.9594377 C293.537024,87.9594377 302.527597,88.5612592 312.659957,89.8715992 C326.33969,91.6406935 329.250829,89.8715991 329.250829,89.8715991 C329.250829,89.8715991 368.457071,50.4945177 383.403924,36.8176786 C394.011842,27.1111003 465.643422,2.86824253 465.643422,2.86824253 C465.643422,2.86824253 409.148105,-12.0719179 380.54637,-11.4729699 C361.793946,-11.080276 337.965271,-12.70305 316.484543,-11.4729699 C300.996923,-10.5860812 279.194824,-0.956081216 279.194824,-0.956081216 L-0.956146657,177.831037 L-2.86843997,197.908735 L3.82458663,201.733055 L15.2983465,201.733055 L66.930266,201.733058 L101.351546,206.513462 C101.351546,206.513462 112.568108,211.620387 116.649892,211.293867 C120.535997,210.983 128.123652,204.601301 128.123652,204.601301 L156.808052,177.831034 L169.237958,168.270229 Z" id="Path-137" fill="#03CEFF" sketch:type="MSShapeGroup" mask="url(#mask-2)"></path>
                        <path d="M256.999998,177.999999 C229.515849,191.24446 164,171.999999 164,171.999999 C164,171.999999 208.989674,128.916164 232.343638,113.773621 C249.785265,102.464594 292.580877,87.9594377 292.580877,87.9594377 C292.580877,87.9594377 305.194128,86.48947 311.70381,87.0033569 C317.305319,87.4455508 328.91445,90.8276803 328.91445,90.8276803 C328.91445,90.8276803 282.422631,165.748971 256.999998,177.999999 Z" id="Path-138" fill="#17A1DB" sketch:type="MSShapeGroup" mask="url(#mask-2)"></path>
                        <path d="M438.640067,56.309391 C419.144951,87.7127059 369.985938,107.233367 386.653094,123.334427 C403.32025,139.435486 472.214982,128.861878 472.214982,128.861878 C472.214982,128.861878 571.660316,209.476428 595.684047,197.082872 C608.576814,190.431648 625.689767,91.3935164 637.923461,79.0497225 C650.374522,66.4866055 628.188354,44.9357997 628.188354,44.9357997 C628.188354,44.9357997 564.775866,21.3176507 534.485981,13.3851318 C511.231653,7.29513169 460.301301,1.08287296 460.301301,1.08287296 C460.301301,1.08287296 458.135183,24.9060761 438.640067,56.309391 Z" id="Path-139" fill="#0092D0" sketch:type="MSShapeGroup" mask="url(#mask-2)"></path>
                        <path d="M724.676997,270.570879 C676.258095,233.836214 592.810927,155.841178 592.810927,155.841178 C592.810927,155.841178 610.001707,121.700344 615.57917,104.212812 C621.385828,86.0066593 626.963291,48.7601231 626.963291,48.7601231 C626.963291,48.7601231 748.398839,61.55519 799.622461,96.5641653 C823.958209,113.196522 859.490593,149.858582 888.798077,179.743199 C893.190619,184.222241 890.866187,216.443908 935.111431,216.074271 C978.418824,215.712468 1028.3716,200.746984 1091.91948,192.17225 C1167.85518,181.925984 1257.66975,177.936659 1303.22789,179.743199 C1380.36134,182.80181 1323.48311,208.779714 1328.08771,216.074271 C1338.14834,232.012243 957.102804,274.395202 957.102804,274.395202 C957.102804,274.395202 930.985917,287.571758 911.566319,293.516819 C889.698949,300.211235 873.354843,299.829715 855.59439,301.165466 C836.236196,302.621382 806.706593,306.731453 785.39231,301.165466 C773.643808,298.097476 755.98333,301.165466 755.98333,301.165466 C755.98333,301.165466 732.546249,276.541158 724.676997,270.570879 Z" id="Path-139" fill="#03CEFF" sketch:type="MSShapeGroup" mask="url(#mask-2)"></path>
                        <mask id="mask-4" sketch:name="Mask" fill="white">
                            <use xlink:href="#path-3"></use>
                        </mask>
                        <use id="Mask" fill="#A7EEFF" sketch:type="MSShapeGroup" xlink:href="#path-3"></use>
                        <path d="M643.4867,145.324288 C643.4867,145.324288 695.118621,118.218197 727.627608,127.779006 C794.557874,139.251976 821.329978,209.381705 821.329978,209.381705 C821.329978,209.381705 753.979807,295.041199 727.627608,288.044204 C697.567154,280.062599 643.4867,162.533742 643.4867,162.533742 L643.4867,145.324288 Z" id="Path-141" fill="#0098D9" sketch:type="MSShapeGroup" mask="url(#mask-4)"></path>
                        <path d="M957.42671,208.994479 C957.42671,208.994479 970.408759,182.781134 976.921823,170.660431 C981.882518,161.428662 991.524083,138.631722 991.524083,138.631722 C991.524083,138.631722 1015.5954,152.782255 1022.12078,163.489824 C1028.02531,173.178647 1028.8138,199.820897 1028.8138,199.820897 L957.42671,208.994479 Z" id="Path-145" fill="#8EDFFF" sketch:type="MSShapeGroup" mask="url(#mask-4)"></path>
                        <path d="M909.295471,198.864816 C878.360612,166.335558 808.900072,117.597944 808.900072,117.597944 C808.900072,117.597944 812.296417,163.513811 820.960912,208.994478 C853.469899,254.886358 898.777858,292.560739 898.777858,292.560739 C898.777858,292.560739 917.491305,288.494499 928.418401,284.912092 C936.932954,282.120627 957.102804,273.439122 957.102804,273.439122 C957.102804,273.439122 927.761523,218.282617 909.295471,198.864816 Z" id="Path-142" fill="#0098D9" sketch:type="MSShapeGroup" mask="url(#mask-4)"></path>
                        <mask id="mask-6" sketch:name="Mask" fill="white">
                            <use xlink:href="#path-5"></use>
                        </mask>
                        <use id="Mask" fill="#0098D9" sketch:type="MSShapeGroup" xlink:href="#path-5"></use>
                        <path d="M821.905379,217.030352 C816.396967,205.48125 788.469055,146.187846 788.469055,146.187846 C788.469055,146.187846 841.193946,206.998338 859.575845,212.249948 C876.890088,217.196534 919.813084,212.249948 919.813084,212.249948 C919.813084,212.249948 934.601364,228.437614 939.892164,237.10805 C946.075124,247.240537 959.015097,276.307364 959.015097,276.307364 C959.015097,276.307364 923.739999,262.27679 905.470884,257.185747 C884.856702,251.441207 842.365205,243.800615 842.365205,243.800615 C842.365205,243.800615 826.277149,226.196335 821.905379,217.030352 Z" id="Path-143" fill="#A7EEFF" sketch:type="MSShapeGroup" mask="url(#mask-6)"></path>
                        <path d="M1133.9658,253.361425 C1103.5739,259.58156 1044.11215,253.361424 1044.11215,253.361424 C1044.11215,253.361424 1082.66449,228.654244 1111.04242,217.030352 C1135.57127,206.983078 1202.83249,188.347926 1202.83249,188.347926 C1202.83249,188.347926 1222.6811,196.600494 1239.16607,197.908735 C1262.83926,199.787431 1323.30697,197.908735 1323.30697,197.908735 C1323.30697,197.908735 1285.09151,209.383828 1264.98203,213.206028 C1246.52693,216.713781 1214.30625,225.635079 1214.30625,225.635079 C1214.30625,225.635079 1158.07426,248.427283 1133.9658,253.361425 Z" id="Path-145" fill="#0098D9" sketch:type="MSShapeGroup" mask="url(#mask-6)"></path>
                    </g>
                </g>
            </g>
        </g>
    </g>
</svg>