<?xml version="1.0" encoding="UTF-8" standalone="no"?>
<svg width="56px" height="62px" viewBox="0 0 56 62" version="1.1" xmlns="http://www.w3.org/2000/svg" xmlns:xlink="http://www.w3.org/1999/xlink" xmlns:sketch="http://www.bohemiancoding.com/sketch/ns">
    <!-- Generator: Sketch 3.4.4 (17249) - http://www.bohemiancoding.com/sketch -->
    <title>Stroke 2462 + Stroke 2463</title>
    <desc>Created with Sketch.</desc>
    <defs></defs>
    <g id="Page-1" stroke="none" stroke-width="1" fill="none" fill-rule="evenodd" sketch:type="MSPage">
        <g id="Desktop-HD" sketch:type="MSArtboardGroup" transform="translate(-558.000000, -1244.000000)" stroke-width="3" stroke="#D5D5D5" stroke-linejoin="round">
            <g id="About" sketch:type="MSLayerGroup" transform="translate(5.000000, 742.000000)">
                <g id="Group" transform="translate(406.000000, 504.000000)" sketch:type="MSShapeGroup">
                    <g id="Stroke-2462-+-Stroke-2463-+-UX" transform="translate(149.000000, 0.000000)">
                        <g id="Stroke-2462-+-Stroke-2463">
                            <path d="M46.65875,20.0155 C46.65875,7.438 34.78125,0.2505 23.99875,0.2505 C10.60125,0.2505 0.24875,10.758 0.24875,24.1555 C0.24875,31.763 2.74875,38.903 10.24875,43.3505 L10.24875,57.7505 L35.24875,57.7505 L35.24875,49.058 C40.24875,49.0855 42.79375,48.723 44.54625,46.968 C46.79375,44.723 46.57875,35.2505 46.57875,35.2505 C46.57875,35.2505 48.71125,35.3305 50.32375,35.2655 C50.88375,35.2405 51.44125,34.958 51.76125,34.498 C52.08375,34.038 51.98125,33.483 52.02125,32.923 C52.31125,28.908 46.65875,22.018 46.65875,20.0155 L46.65875,20.0155 Z" id="Stroke-2462"></path>
                            <path d="M24,35.38175 C24,35.38175 36.5,26.37925 36.5,19.71425 C36.5,12.02175 26.2725,9.58925 24,18.94675 C21.7275,9.58925 11.5,12.02175 11.5,19.71425 C11.5,26.37925 24,35.38175 24,35.38175 L24,35.38175 Z" id="Stroke-2463"></path>
                        </g>
                    </g>
                </g>
            </g>
        </g>
    </g>
</svg>