<?xml version="1.0" encoding="UTF-8" standalone="no"?>
<svg width="20px" height="15px" viewBox="0 0 20 15" version="1.1" xmlns="http://www.w3.org/2000/svg" xmlns:xlink="http://www.w3.org/1999/xlink" xmlns:sketch="http://www.bohemiancoding.com/sketch/ns">
    <!-- Generator: Sketch 3.4.4 (17249) - http://www.bohemiancoding.com/sketch -->
    <title>Stroke 39</title>
    <desc>Created with Sketch.</desc>
    <defs></defs>
    <g id="Page-1" stroke="none" stroke-width="1" fill="none" fill-rule="evenodd" sketch:type="MSPage">
        <g id="Desktop-HD" sketch:type="MSArtboardGroup" transform="translate(-1106.000000, -5059.000000)" fill="#FFFFFF">
            <g id="Bottom" sketch:type="MSLayerGroup" transform="translate(-393.000000, 4317.000000)">
                <g id="Footer" transform="translate(352.000000, 592.000000)" sketch:type="MSShapeGroup">
                    <g id="Logo-+-Group-+-Made-with-love-in-20-+-Logo" transform="translate(298.000000, 133.000000)">
                        <g id="Logo-+-Group" transform="translate(815.000000, 16.000000)">
                            <g id="Group">
                                <g id="Stroke-39">
                                    <path d="M51.6671889,2.95833333 C52.4878008,2.49 52.5253794,2.16166667 52.8216386,1.27583333 C52.0543359,1.71 51.2040107,2.02583333 50.2995023,2.19666667 C49.5758957,1.46083333 48.5429209,1 47.40158,1 C45.208038,1 43.4304825,2.69666667 43.4304825,4.78666667 C43.4304825,5.08416667 43.4654394,5.37333333 43.5327313,5.65 C40.2319313,5.4925 37.3060435,3.98416667 35.3475863,1.6925 C35.0058832,2.2525 34.8092509,2.90333333 34.8092509,3.5975 C34.8092509,4.91166667 35.5110096,6.07 36.5763194,6.74916667 C35.9252482,6.72916667 35.3135034,6.55916667 34.7777898,6.27583333 C34.7769159,6.29166667 34.7769159,6.30666667 34.7769159,6.32333333 C34.7769159,8.15833333 36.1463502,9.68833333 37.9632322,10.0366667 C37.3812007,10.1875 36.7677081,10.2108333 36.1690722,10.1016667 C36.6750725,11.6058333 38.1415121,12.7008333 39.8788672,12.7316667 C38.1799646,14.0016667 36.0729408,14.5308333 34,14.2991667 C35.7574553,15.3733333 37.8443789,16 40.0877343,16 C47.3919669,16 51.3849123,10.23 51.3849123,5.22583333 C51.3849123,5.06083333 51.3822906,4.89916667 51.3744253,4.73583333 C52.1495933,4.2025 53.0820671,3.705 53.6142851,2.945 C52.9029133,3.2475 52.3034034,3.2575 51.6671889,2.95833333 Z"></path>
                                </g>
                            </g>
                        </g>
                    </g>
                </g>
            </g>
        </g>
    </g>
</svg>