<?xml version="1.0" encoding="UTF-8" standalone="no"?>
<svg width="20px" height="20px" viewBox="0 0 20 20" version="1.1" xmlns="http://www.w3.org/2000/svg" xmlns:xlink="http://www.w3.org/1999/xlink" xmlns:sketch="http://www.bohemiancoding.com/sketch/ns">
    <!-- Generator: Sketch 3.4.4 (17249) - http://www.bohemiancoding.com/sketch -->
    <title>Group</title>
    <desc>Created with Sketch.</desc>
    <defs></defs>
    <g id="Page-1" stroke="none" stroke-width="1" fill="none" fill-rule="evenodd" sketch:type="MSPage">
        <g id="Desktop-HD" sketch:type="MSArtboardGroup" transform="translate(-1141.000000, -5057.000000)" stroke-width="2" stroke="#FFFFFF" stroke-linejoin="round">
            <g id="Bottom" sketch:type="MSLayerGroup" transform="translate(-393.000000, 4317.000000)">
                <g id="Footer" transform="translate(352.000000, 592.000000)" sketch:type="MSShapeGroup">
                    <g id="Logo-+-Group-+-Made-with-love-in-20-+-Logo" transform="translate(298.000000, 133.000000)">
                        <g id="Logo-+-Group" transform="translate(815.000000, 16.000000)">
                            <g id="Group">
                                <g id="Stroke-39">
                                    <g id="Group" transform="translate(70.000000, 0.000000)">
                                        <path d="M17.625,9 C17.625,13.764 13.764,17.625 9,17.625 C4.236,17.625 0.375,13.764 0.375,9 C0.375,4.2375 4.236,0.375 9,0.375 C13.764,0.375 17.625,4.2375 17.625,9 L17.625,9 Z" id="Stroke-49"></path>
                                        <path d="M4.8882,1.415775 C9.2097,4.703025 11.9997,9.901275 11.9997,15.749775 C11.9997,16.208025 11.98245,16.659525 11.94945,17.107275" id="Stroke-51"></path>
                                        <path d="M15.43875,3.261825 C12.20625,6.351825 7.8255,8.250075 3,8.250075 C2.12625,8.250075 1.2675,8.187075 0.426,8.067825" id="Stroke-53"></path>
                                        <path d="M2.29395,14.42355 C5.52945,11.31105 9.92595,9.39855 14.76945,9.39855 C15.66045,9.39855 16.74795,9.4803 17.6037,9.60555" id="Stroke-55"></path>
                                    </g>
                                </g>
                            </g>
                        </g>
                    </g>
                </g>
            </g>
        </g>
    </g>
</svg>