<?xml version="1.0" encoding="UTF-8" standalone="no"?>
<svg width="64px" height="18px" viewBox="0 0 64 18" version="1.1" xmlns="http://www.w3.org/2000/svg" xmlns:xlink="http://www.w3.org/1999/xlink" xmlns:sketch="http://www.bohemiancoding.com/sketch/ns">
    <!-- Generator: Sketch 3.4.4 (17249) - http://www.bohemiancoding.com/sketch -->
    <title>Logo</title>
    <desc>Created with Sketch.</desc>
    <defs></defs>
    <g id="Page-1" stroke="none" stroke-width="1" fill="none" fill-rule="evenodd" sketch:type="MSPage">
        <g id="Desktop-HD" sketch:type="MSArtboardGroup" transform="translate(-259.000000, -5042.000000)" fill="#FFFFFF">
            <g id="Bottom" sketch:type="MSLayerGroup" transform="translate(-393.000000, 4317.000000)">
                <g id="Footer" transform="translate(352.000000, 592.000000)" sketch:type="MSShapeGroup">
                    <g id="Logo-+-Group-+-Made-with-love-in-20-+-Logo" transform="translate(298.000000, 133.000000)">
                        <g id="Made-with-love-in-20-+-Logo">
                            <path d="M2,17.6270718 L2,0 L13.1381215,0 L13.1381215,3.25690608 L5.43093923,3.25690608 L5.43093923,7.60773481 L12.2928177,7.60773481 L12.2928177,10.7651934 L5.4558011,10.7651934 L5.4558011,17.6270718 L2,17.6270718 Z M13.3189696,14.2955801 C13.3189696,13.748616 13.4142725,13.2638143 13.6048812,12.8411602 C13.7954899,12.4185062 14.056537,12.0497253 14.3880304,11.7348066 C14.7195238,11.4198879 15.104879,11.1712716 15.5441077,10.9889503 C15.9833365,10.8066289 16.459851,10.6740336 16.9736658,10.5911602 L19.9819531,10.1436464 C20.3300211,10.0939224 20.5703502,9.99033228 20.7029475,9.83287293 C20.8355449,9.67541358 20.9018426,9.48895135 20.9018426,9.27348066 C20.9018426,8.84253928 20.7319548,8.46961483 20.392174,8.15469613 C20.0523933,7.83977743 19.5344427,7.68232044 18.8383066,7.68232044 C18.1090212,7.68232044 17.5496346,7.88121348 17.1601298,8.27900552 C16.7706251,8.67679757 16.5510141,9.14088133 16.5012901,9.67127072 L13.5675884,9.04972376 C13.6173124,8.56905837 13.7664822,8.08840019 14.0151022,7.60773481 C14.2637223,7.12706942 14.6034979,6.6961345 15.0344392,6.31491713 C15.4653806,5.93369975 15.9957621,5.62292938 16.6255995,5.38259669 C17.2554369,5.14226399 17.9847113,5.02209945 18.8134448,5.02209945 C19.7747755,5.02209945 20.5952093,5.1505512 21.2747707,5.40745856 C21.9543321,5.66436593 22.5054316,6.00414153 22.9280856,6.42679558 C23.3507397,6.84944963 23.6573665,7.34253862 23.8479752,7.90607735 C24.0385838,8.46961608 24.1338868,9.05800798 24.1338868,9.67127072 L24.1338868,15.6878453 C24.1338868,16.0193387 24.1504612,16.3715451 24.1836105,16.7444751 C24.2167598,17.1174052 24.2499087,17.4116011 24.283058,17.6270718 L21.2499089,17.6270718 C21.2167595,17.4613251 21.1877543,17.2334269 21.1628923,16.9433702 C21.1380303,16.6533135 21.1255995,16.3922664 21.1255995,16.160221 C20.8106808,16.6408864 20.3590278,17.0635341 19.7706271,17.4281768 C19.1822264,17.7928195 18.4322339,17.9751381 17.5206271,17.9751381 C16.874215,17.9751381 16.2899667,17.871548 15.7678647,17.6643646 C15.2457626,17.4571813 14.8023969,17.1837034 14.4377542,16.8439227 C14.0731115,16.5041419 13.7954899,16.1146431 13.6048812,15.6754144 C13.4142725,15.2361856 13.3189696,14.7762455 13.3189696,14.2955801 L13.3189696,14.2955801 Z M18.2167597,15.5138122 C18.5648277,15.5138122 18.9004597,15.4682325 19.2236658,15.3770718 C19.5468718,15.2859111 19.8327805,15.1284542 20.0814006,14.9046961 C20.3300206,14.6809381 20.5289136,14.3908858 20.6780856,14.0345304 C20.8272577,13.678175 20.9018426,13.2265221 20.9018426,12.679558 L20.9018426,12.1325967 L18.142174,12.5552486 C17.7112327,12.6215473 17.350739,12.7748607 17.0606823,13.0151934 C16.7706256,13.2555261 16.6255995,13.6160197 16.6255995,14.0966851 C16.6255995,14.4613278 16.7581948,14.7886726 17.0233895,15.0787293 C17.2885842,15.368786 17.6863703,15.5138122 18.2167597,15.5138122 L18.2167597,15.5138122 Z M26.6766133,17.6270718 L26.6766133,5.39502762 L29.8340719,5.39502762 L29.8340719,6.88674033 C29.9998185,6.5883963 30.215286,6.32320558 30.4804807,6.09116022 C30.7456754,5.85911486 31.0398713,5.66850903 31.3630774,5.51933702 C31.6862834,5.370165 32.026059,5.25414406 32.3824144,5.17127072 C32.7387698,5.08839738 33.082689,5.04696133 33.4141823,5.04696133 C34.2594904,5.04696133 34.9970521,5.22099273 35.6268895,5.56906077 C36.2567269,5.91712881 36.7290979,6.42264862 37.0440166,7.08563536 C37.524682,6.33977528 38.0882123,5.81353744 38.7346243,5.50690608 C39.3810364,5.20027471 40.1103109,5.04696133 40.9224696,5.04696133 C41.4860084,5.04696133 42.0329642,5.13397703 42.5633536,5.30801105 C43.093743,5.48204507 43.566114,5.7596666 43.9804807,6.14088398 C44.3948474,6.52210135 44.7263358,7.00690314 44.9749558,7.59530387 C45.2235759,8.1837046 45.347884,8.88397384 45.347884,9.6961326 L45.347884,17.6270718 L42.1407017,17.6270718 L42.1407017,10.3674033 C42.1407017,9.70441657 41.9708139,9.15331711 41.6310332,8.7140884 C41.2912525,8.27485968 40.740153,8.05524862 39.9777183,8.05524862 C39.2650075,8.05524862 38.7097644,8.2914341 38.3119724,8.76381215 C37.9141804,9.23619021 37.7152873,9.80386409 37.7152873,10.4668508 L37.7152873,17.6270718 L34.4335194,17.6270718 L34.4335194,10.3674033 C34.4335194,9.70441657 34.259488,9.15331711 33.9114199,8.7140884 C33.5633519,8.27485968 33.016396,8.05524862 32.2705359,8.05524862 C31.5412505,8.05524862 30.9777202,8.2872905 30.5799282,8.75138122 C30.1821362,9.21547193 29.9832431,9.78728942 29.9832431,10.4668508 L29.9832431,17.6270718 L26.6766133,17.6270718 Z M55.7966879,10.1187845 C55.7801132,9.8204405 55.7179591,9.52624454 55.6102238,9.23618785 C55.5024885,8.94613115 55.3367443,8.68922764 55.1129862,8.46546961 C54.8892282,8.24171159 54.6074631,8.05939297 54.2676824,7.91850829 C53.9279017,7.7776236 53.525972,7.70718232 53.0618813,7.70718232 C52.6309399,7.70718232 52.2497282,7.78176721 51.9182348,7.93093923 C51.5867415,8.08011124 51.3049763,8.27071707 51.072931,8.50276243 C50.8408856,8.73480779 50.6627106,8.9917113 50.5384006,9.27348066 C50.4140906,9.55525003 50.3436493,9.83701517 50.3270746,10.1187845 L55.7966879,10.1187845 Z M58.8795608,14.121547 C58.7303888,14.6519364 58.4942033,15.1533126 58.1709973,15.6256906 C57.8477912,16.0980687 57.4541488,16.5082856 56.9900581,16.8563536 C56.5259673,17.2044216 55.9831551,17.4820432 55.361605,17.6892265 C54.7400549,17.8964099 54.0563601,18 53.3105,18 C52.4651919,18 51.6613326,17.8549738 50.8988978,17.5649171 C50.1364631,17.2748604 49.4651991,16.8480691 48.8850857,16.2845304 C48.3049723,15.7209917 47.8450321,15.0331532 47.5052514,14.2209945 C47.1654707,13.4088357 46.9955829,12.4889554 46.9955829,11.461326 C46.9955829,10.4834205 47.1613271,9.59668906 47.4928205,8.80110497 C47.8243139,8.00552088 48.2676796,7.33011327 48.822931,6.77486188 C49.3781824,6.21961048 50.0204411,5.78867557 50.7497266,5.4820442 C51.479012,5.17541283 52.2331481,5.02209945 53.0121575,5.02209945 C54.9182444,5.02209945 56.401655,5.58562972 57.4624337,6.71270718 C58.5232125,7.83978464 59.053594,9.3894929 59.053594,11.3618785 C59.053594,11.5939238 59.0453068,11.8135349 59.0287321,12.0207182 C59.0121574,12.2279016 59.0038702,12.3480661 59.0038702,12.3812155 L50.252489,12.3812155 C50.2690637,12.7790075 50.3643666,13.1477884 50.5384006,13.4875691 C50.7124346,13.8273498 50.9361893,14.1215457 51.2096713,14.3701657 C51.4831533,14.6187858 51.8022109,14.8135352 52.1668536,14.9544199 C52.5314963,15.0953046 52.9209952,15.1657459 53.3353619,15.1657459 C54.1143713,15.1657459 54.7234813,14.9917144 55.16271,14.6436464 C55.6019387,14.2955784 55.9209963,13.848069 56.1198923,13.301105 L58.8795608,14.121547 Z M60.7012929,15.538674 C60.7012929,14.9088366 60.9209039,14.3743116 61.3601327,13.9350829 C61.7993614,13.4958542 62.3338864,13.2762431 62.9637238,13.2762431 C63.2786425,13.2762431 63.5769821,13.3342536 63.8587514,13.4502762 C64.1405208,13.5662989 64.3849935,13.7278995 64.5921769,13.9350829 C64.7993602,14.1422662 64.9609608,14.3825953 65.0769835,14.6560773 C65.1930062,14.9295594 65.2510166,15.2237553 65.2510166,15.538674 C65.2510166,15.8535927 65.1930062,16.1477887 65.0769835,16.4212707 C64.9609608,16.6947527 64.7993602,16.9350818 64.5921769,17.1422652 C64.3849935,17.3494485 64.1405208,17.5110491 63.8587514,17.6270718 C63.5769821,17.7430945 63.2786425,17.801105 62.9637238,17.801105 C62.3338864,17.801105 61.7993614,17.5814939 61.3601327,17.1422652 C60.9209039,16.7030365 60.7012929,16.1685114 60.7012929,15.538674 L60.7012929,15.538674 Z" id="Logo"></path>
                        </g>
                    </g>
                </g>
            </g>
        </g>
    </g>
</svg>