<?xml version="1.0" encoding="UTF-8" standalone="no"?>
<svg width="350px" height="100px" viewBox="0 0 350 100" version="1.1" xmlns="http://www.w3.org/2000/svg" xmlns:xlink="http://www.w3.org/1999/xlink" xmlns:sketch="http://www.bohemiancoding.com/sketch/ns">
    <!-- Generator: Sketch 3.4.1 (15681) - http://www.bohemiancoding.com/sketch -->
    <title>Fame.</title>
    <desc>Created with Sketch.</desc>
    <defs></defs>
    <g id="Page-1" stroke="none" stroke-width="1" fill="none" fill-rule="evenodd" sketch:type="MSPage">
        <g id="Artboard-1" sketch:type="MSArtboardGroup" transform="translate(-509.000000, -441.000000)" fill="#febe7e">
            <g id="Fame." sketch:type="MSLayerGroup" transform="translate(509.000000, 441.000000)">
                <path d="M0,97.5881223 L0,0 L61.512933,0 L61.512933,18.0310917 L18.9481802,18.0310917 L18.9481802,42.1184279 L56.8445407,42.1184279 L56.8445407,59.598952 L19.0854859,59.598952 L19.0854859,97.5881223 L0,97.5881223 Z M62.5117096,79.1441048 C62.5117096,76.1159674 63.0380427,73.4319768 64.0907246,71.0920524 C65.1434066,68.752128 66.5851015,66.71046 68.4158527,64.9669869 C70.246604,63.2235138 72.3748203,61.8471084 74.8005657,60.8377293 C77.226311,59.8283501 79.8579764,59.0942672 82.6956408,58.6354585 L99.3096249,56.1579039 C101.231914,55.8826187 102.559188,55.3091164 103.291489,54.4373799 C104.023789,53.5656434 104.389934,52.5333393 104.389934,51.3404367 C104.389934,48.9546314 103.451688,46.8900233 101.575168,45.1465502 C99.6986482,43.4030772 96.8381423,42.5313537 92.9935648,42.5313537 C88.9659121,42.5313537 85.8765658,43.6324781 83.7254332,45.8347598 C81.5743005,48.0370416 80.361446,50.6063318 80.0868333,53.5427074 L63.8847662,50.1016594 C64.1593788,47.4405689 64.9832045,44.7795184 66.3562679,42.1184279 C67.7293313,39.4573375 69.6058232,37.071568 71.9857997,34.961048 C74.3657763,32.850528 77.2949343,31.1300212 80.7733616,29.799476 C84.2517889,28.4689308 88.2793811,27.8036681 92.8562591,27.8036681 C98.1654376,27.8036681 102.696479,28.5148109 106.449519,29.9371179 C110.202559,31.3594249 113.246137,33.2405123 115.580345,35.5804367 C117.914553,37.920361 119.607972,40.6502319 120.660654,43.770131 C121.713336,46.8900302 122.239669,50.1475231 122.239669,53.5427074 L122.239669,86.8520524 C122.239669,88.6872872 122.331205,90.6371949 122.51428,92.7018341 C122.697356,94.7664732 122.880428,96.3952197 123.063503,97.5881223 L106.312213,97.5881223 C106.129138,96.6705049 105.96895,95.4087999 105.831643,93.8029694 C105.694337,92.197139 105.625685,90.7519133 105.625685,89.4672489 C103.886471,92.1283394 101.39211,94.4682286 98.1425268,96.4869869 C94.8929434,98.5057452 90.750931,99.5151092 85.7163651,99.5151092 C82.1464003,99.5151092 78.9197497,98.9416069 76.0363165,97.7945852 C73.1528834,96.6475634 70.7042904,95.1335174 68.6904641,93.2524017 C66.6766377,91.3712861 65.1434066,89.2149175 64.0907246,86.7832314 C63.0380427,84.3515453 62.5117096,81.8051953 62.5117096,79.1441048 L62.5117096,79.1441048 Z M89.5609235,85.888559 C91.4832122,85.888559 93.33682,85.636218 95.1218024,85.1315284 C96.9067849,84.6268388 98.4857841,83.7551154 99.8588475,82.5163319 C101.231911,81.2775484 102.330345,79.671742 103.154183,77.6988646 C103.978021,75.7259872 104.389934,73.2255173 104.389934,70.1973799 L104.389934,67.1692576 L89.1490065,69.5091703 C86.7690299,69.8762173 84.7781178,70.7250006 83.1762105,72.0555459 C81.5743032,73.3860911 80.7733616,75.381879 80.7733616,78.0429694 C80.7733616,80.0617277 81.5056511,81.8739949 82.9702521,83.4798253 C84.434853,85.0856558 86.6317215,85.888559 89.5609235,85.888559 L89.5609235,85.888559 Z M136.282483,97.5881223 L136.282483,29.8682969 L153.720301,29.8682969 L153.720301,38.1268122 C154.635677,36.4751009 155.825647,35.0069351 157.290248,33.7222707 C158.754849,32.4376064 160.379616,31.3823622 162.164599,30.5565066 C163.949581,29.7306509 165.826073,29.0883283 167.79413,28.6295197 C169.762188,28.170711 171.661564,27.94131 173.492315,27.94131 C178.160731,27.94131 182.234091,28.9047939 185.712518,30.8317904 C189.190946,32.7587869 191.799727,35.557478 193.538941,39.2279476 C196.19353,35.0986693 199.30576,32.1852778 202.875725,30.4876856 C206.44569,28.7900934 210.473282,27.94131 214.958623,27.94131 C218.0709,27.94131 221.091594,28.423052 224.020796,29.3865502 C226.949998,30.3500485 229.558779,31.8870346 231.847218,33.9975546 C234.135657,36.1080746 235.966381,38.7920652 237.339444,42.049607 C238.712508,45.3071487 239.399029,49.1840241 239.399029,53.6803493 L239.399029,97.5881223 L221.6866,97.5881223 L221.6866,57.3966812 C221.6866,53.7262116 220.748354,50.6751796 218.871834,48.2434934 C216.995314,45.8118073 213.951736,44.5959825 209.741008,44.5959825 C205.804893,44.5959825 202.73843,45.9035677 200.541529,48.5187773 C198.344627,51.1339869 197.246193,54.2767793 197.246193,57.9472489 L197.246193,97.5881223 L179.121847,97.5881223 L179.121847,57.3966812 C179.121847,53.7262116 178.160717,50.6751796 176.238428,48.2434934 C174.316139,45.8118073 171.295445,44.5959825 167.176255,44.5959825 C163.148602,44.5959825 160.036372,45.8806276 157.839471,48.4499563 C155.642569,51.019285 154.544135,54.1850176 154.544135,57.9472489 L154.544135,97.5881223 L136.282483,97.5881223 Z M297.105041,56.020262 C297.013503,54.3685507 296.670242,52.7398042 296.075248,51.1339738 C295.480254,49.5281434 294.564892,48.1058577 293.329135,46.8670742 C292.093378,45.6282907 290.537263,44.6189268 288.660743,43.838952 C286.784223,43.0589772 284.56447,42.6689956 282.001419,42.6689956 C279.621442,42.6689956 277.51611,43.0819173 275.685359,43.9077729 C273.854607,44.7336286 272.298492,45.7888728 271.016966,47.0735371 C269.735441,48.3582015 268.751427,49.7804871 268.064895,51.3404367 C267.378363,52.9003863 266.989334,54.4603124 266.897797,56.020262 L297.105041,56.020262 Z M314.130942,78.1806114 C313.307104,81.116987 312.002713,83.892738 310.217731,86.5079476 C308.432748,89.1231572 306.258764,91.3942262 303.695712,93.3212227 C301.13266,95.2482192 298.13485,96.7852053 294.702192,97.9322271 C291.269533,99.0792488 287.493666,99.6527511 283.374475,99.6527511 C278.70606,99.6527511 274.266555,98.8498479 270.055827,97.2440175 C265.845099,95.638187 262.137884,93.2753577 258.934069,90.1554585 C255.730254,87.0355594 253.190125,83.2275043 251.313605,78.731179 C249.437085,74.2348538 248.498839,69.1421536 248.498839,63.4529258 C248.498839,58.0389831 249.414201,53.1298037 251.244952,48.7252402 C253.075704,44.3206767 255.524297,40.5814419 258.590805,37.5074236 C261.657313,34.4334053 265.20434,32.0476359 269.231993,30.3500437 C273.259646,28.6524515 277.424542,27.8036681 281.726807,27.8036681 C292.253627,27.8036681 300.446116,30.9235205 306.30452,37.1633188 C312.162923,43.4031171 315.092081,51.982711 315.092081,62.9023581 C315.092081,64.1870224 315.046313,65.4028472 314.954776,66.549869 C314.863238,67.6968907 314.81747,68.3621534 314.81747,68.5456769 L266.48588,68.5456769 C266.577417,70.7479586 267.103751,72.7896267 268.064895,74.6707424 C269.026039,76.551858 270.261778,78.1806045 271.772148,79.5570306 C273.282517,80.9334567 275.044589,82.0116409 277.058415,82.7916157 C279.072242,83.5715905 281.223342,83.9615721 283.511781,83.9615721 C287.814046,83.9615721 291.178001,82.9980882 293.603747,81.0710917 C296.029492,79.1440952 297.791563,76.6665654 298.890014,73.6384279 L314.130942,78.1806114 Z M324.191892,86.0262009 C324.191892,82.5392548 325.404746,79.579983 327.830491,77.1482969 C330.256237,74.7166108 333.208279,73.500786 336.686706,73.500786 C338.42592,73.500786 340.073571,73.8219473 341.62971,74.4642795 C343.185848,75.1066117 344.536007,76.0012752 345.680226,77.1482969 C346.824446,78.2953187 347.716924,79.625844 348.357687,81.1399127 C348.99845,82.6539814 349.318826,84.2827278 349.318826,86.0262009 C349.318826,87.7696739 348.99845,89.3984204 348.357687,90.9124891 C347.716924,92.4265578 346.824446,93.7570831 345.680226,94.9041048 C344.536007,96.0511266 343.185848,96.9457901 341.62971,97.5881223 C340.073571,98.2304544 338.42592,98.5516157 336.686706,98.5516157 C333.208279,98.5516157 330.256237,97.3357909 327.830491,94.9041048 C325.404746,92.4724187 324.191892,89.513147 324.191892,86.0262009 L324.191892,86.0262009 Z" sketch:type="MSShapeGroup"></path>
            </g>
        </g>
    </g>
</svg>
