<?xml version="1.0" encoding="UTF-8" standalone="no"?>
<svg width="777px" height="790px" viewBox="0 0 777 790" version="1.1" xmlns="http://www.w3.org/2000/svg" xmlns:xlink="http://www.w3.org/1999/xlink" xmlns:sketch="http://www.bohemiancoding.com/sketch/ns">
    <!-- Generator: Sketch 3.4.4 (17249) - http://www.bohemiancoding.com/sketch -->
    <title>logo-sign</title>
    <desc>Created with Sketch.</desc>
    <defs></defs>
    <g id="Page-1" stroke="none" stroke-width="1" fill="none" fill-rule="evenodd" sketch:type="MSPage">
        <g id="Desktop-HD" sketch:type="MSArtboardGroup" transform="translate(-532.000000, -2955.000000)" fill="#A4DA28">
            <g id="Work" sketch:type="MSLayerGroup" transform="translate(-34.000000, 1463.000000)">
                <g id="Rectangle-12-+-Just-keep-swimming" transform="translate(0.000000, 1438.000000)" sketch:type="MSShapeGroup">
                    <g id="Rectangle-12-+-Group">
                        <g id="logo-sign" transform="translate(566.000000, 54.000000)">
                            <path d="M633.147465,708.494622 C646.766142,697.906686 659.711103,686.562469 671.829961,674.37347 C683.97288,662.232744 695.281676,649.263327 705.748327,635.634176 C716.214978,621.964797 725.799382,607.683956 734.421336,592.65488 L776.961656,617.306427 L729.73741,470.354567 L606.623928,518.660013 L649.220391,543.359832 C642.74791,554.55923 635.577653,565.291985 627.717639,575.509826 C619.865645,585.719621 611.380039,595.503003 602.28488,604.586422 C593.181701,613.790524 583.48501,622.318801 573.250952,630.179297 C563.048974,637.99152 552.357752,645.200328 541.177283,651.741355 C530.085039,658.129517 518.527611,663.898172 506.561141,668.822045 C494.731018,673.826373 482.531956,677.897418 469.979995,681.316774 C457.668647,684.615447 445.028461,687.109566 432.123602,688.823267 C419.515498,690.545013 406.674802,691.301294 393.609535,691.301294 C380.544267,691.301294 367.68753,690.545013 355.087447,688.823267 C342.166546,687.109566 329.534381,684.615447 317.198972,681.316774 C304.655032,677.897418 292.47201,673.826373 280.625847,668.822045 C268.675418,663.898172 257.12601,658.129517 246.009704,651.741355 C234.845277,645.200328 224.138013,637.99152 213.952077,630.179297 C203.718018,622.318801 194.029348,613.790524 184.918148,604.586422 C175.83101,595.503003 167.329362,585.719621 159.477369,575.509826 C151.625376,565.291985 144.447098,554.55923 137.998678,543.359832 C131.558279,532.184572 125.847739,520.61508 120.883097,508.627219 C115.99064,496.735905 111.82804,484.506679 108.499565,471.947584 C105.195151,459.53331 102.652677,446.901806 101.00047,433.972617 C99.3482635,421.252612 98.4900783,408.403878 98.4900783,395.321824 C98.4900783,382.199542 99.3482635,369.286444 101.00047,356.687122 C102.652677,343.733796 105.195151,331.045974 108.499565,318.639745 C111.82804,306.104787 115.99064,293.835333 120.883097,281.984247 C125.847739,270.004432 131.542238,258.402757 137.998678,247.251633 C144.447098,236.036145 151.625376,225.287298 159.477369,215.109685 C167.329362,204.819435 175.83101,195.108463 184.918148,185.96068 C194.029348,176.845078 203.718018,168.324847 213.952077,160.440214 C224.138013,152.595809 234.837256,145.378956 246.009704,138.894248 C257.12601,132.441721 268.675418,126.729385 280.625847,121.741148 C292.47201,116.825321 304.655032,112.657729 317.198972,109.286646 C329.534381,105.996019 342.166546,103.437536 355.087447,101.780154 C367.68753,100.146908 380.544267,99.2779894 393.609535,99.2779894 C406.674802,99.2779894 419.515498,100.146908 432.123602,101.780154 C445.028461,103.437536 457.668647,105.996019 469.996036,109.286646 C482.531956,112.657729 494.731018,116.825321 506.561141,121.741148 C518.527611,126.729385 530.085039,132.441721 541.177283,138.894248 C552.357752,145.378956 563.048974,152.595809 573.250952,160.440214 C583.48501,168.324847 593.181701,176.845078 602.28488,185.96068 C611.380039,195.108463 619.881686,204.819435 627.725659,215.109685 C635.577653,225.287298 642.763951,236.036145 649.220391,247.251633 L691.816853,222.608132 L734.421336,197.924404 C725.799382,182.943601 716.190916,168.630578 705.748327,155.033609 C695.281676,141.340093 683.97288,128.378722 671.829961,116.189723 C659.711103,104.016815 646.766142,92.6323701 633.147465,82.1812085 C619.552849,71.6737281 605.260457,62.0753942 590.350492,53.43448 C575.568854,44.8418391 560.161622,37.1824813 544.217023,30.5529531 C528.432832,24.0038803 512.183457,18.4363639 495.460876,13.9791326 C479.051092,9.57017451 462.184145,6.18300051 444.972318,3.93024821 C428.153493,1.73381472 411.00583,0.575256391 393.609535,0.575256391 C376.189177,0.575256391 359.049535,1.73381472 342.23873,3.93024821 C325.018884,6.18300051 308.167977,9.57017451 291.726111,13.9791326 C275.019571,18.4363639 258.746135,24.0038803 242.977985,30.5529531 C227.041406,37.1824813 211.634175,44.8418391 196.828475,53.43448 C181.926531,62.0753942 167.650179,71.6737281 154.071604,82.1812085 C140.428866,92.6323701 127.491925,104.016815 115.365047,116.189723 C103.230148,128.378722 91.9053117,141.340093 81.4306403,155.033609 C70.9880505,168.630578 61.4116664,182.943601 52.7897125,197.924404 C44.2078607,212.776478 36.59648,228.248059 29.9956725,244.218463 C23.4590284,260.036003 17.9249371,276.360411 13.4655823,293.111234 C9.07039094,309.612644 5.68577276,326.516332 3.44005453,343.774024 C1.24245884,360.653575 0.119599733,377.798629 0.119599733,395.321824 C0.119599733,412.708244 1.24245884,429.973982 3.44005453,446.797214 C5.68577276,464.111225 9.07039094,481.05514 13.4655823,497.516323 C17.9249371,514.251054 23.4429876,530.607645 29.9956725,546.376911 C36.59648,562.403635 44.2078607,577.899353 52.7897125,592.65488 C61.4116664,607.683956 70.9880505,621.964797 81.4306403,635.634176 C91.9053117,649.263327 103.230148,662.232744 115.365047,674.37347 C127.491925,686.562469 140.428866,697.906686 154.063584,708.494622 C167.650179,718.953829 181.926531,728.511935 196.828475,737.185031 C211.634175,745.753536 227.041406,753.372666 242.977985,760.082649 C258.746135,766.559312 275.019571,772.126829 291.726111,776.680607 C308.167977,781.017155 325.018884,784.404329 342.23873,786.697309 C359.049535,788.829378 376.189177,789.971845 393.609535,789.971845 C411.00583,789.971845 428.153493,788.829378 444.972318,786.697309 C462.184145,784.404329 479.051092,781.017155 495.460876,776.680607 C512.183457,772.126829 528.432832,766.559312 544.217023,760.082649 C560.161622,753.372666 575.568854,745.753536 590.350492,737.185031 C605.260457,728.511935 619.552849,718.953829 633.147465,708.494622" id="Fill-1"></path>
                            <path d="M294.89097,369.742626 C296.013829,365.534807 297.385321,361.479853 299.037528,357.513399 C300.673694,353.546946 302.598595,349.685085 304.732028,345.968044 C306.905562,342.226866 309.271587,338.654644 311.910306,335.243334 C314.524963,331.832023 317.332111,328.541396 320.363831,325.532362 C323.403571,322.475056 326.635801,319.667161 330.060521,316.99604 C333.437119,314.397329 337.014227,312.007803 340.743723,309.859643 C344.441138,307.687346 348.2749,305.772506 352.277091,304.115124 C356.207098,302.522107 360.297513,301.098045 364.460112,299.963624 C368.566568,298.877475 372.793331,298.048784 377.084257,297.477551 C381.286958,296.930454 385.569863,296.57645 389.908912,296.57645 C394.288062,296.57645 398.570968,296.930454 402.765649,297.477551 C407.056574,298.048784 411.275317,298.877475 415.381773,299.963624 C419.576454,301.098045 423.634787,302.522107 427.588855,304.115124 C431.550944,305.812734 435.416787,307.687346 439.106182,309.859643 C442.843698,312.007803 446.412786,314.397329 449.821466,316.99604 C453.198063,319.667161 456.470396,322.475056 459.486075,325.532362 C462.533835,328.557487 465.349003,331.832023 467.963661,335.243334 C470.570298,338.654644 472.944343,342.226866 475.093816,345.984135 L517.72236,321.27627 L560.334864,296.57645 C556.035917,289.150413 551.239705,281.973787 546.002369,275.167257 C540.789095,268.312454 535.110636,261.8197 529.047196,255.737269 C522.991778,249.670928 516.511277,243.982729 509.693918,238.720943 C502.916661,233.483294 495.762444,228.696195 488.319492,224.359647 C480.908622,220.055281 473.200997,216.225602 465.236717,212.951066 C457.344622,209.652393 449.219934,206.87668 440.854634,204.640019 C432.641721,202.451631 424.204237,200.713794 415.606345,199.6196 C407.200942,198.51736 398.651172,197.938081 389.908912,197.938081 C381.230815,197.938081 372.648963,198.51736 364.22752,199.6196 C355.645668,200.713794 347.208184,202.451631 338.995271,204.640019 C330.629971,206.87668 322.497263,209.652393 314.613188,212.951066 C306.640888,216.225602 298.949303,220.055281 291.546454,224.359647 C284.087461,228.696195 276.957306,233.483294 270.164008,238.720943 C263.338629,243.982729 256.874168,249.670928 250.802709,255.737269 C244.723229,261.8197 239.06081,268.312454 233.839516,275.167257 C228.626241,281.973787 223.813988,289.150413 219.499001,296.57645 C215.232136,304.066851 211.422436,311.766437 208.118022,319.755662 C204.845689,327.696614 202.070623,335.814567 199.848966,344.222161 C197.651371,352.468843 195.951041,360.932756 194.852243,369.525396 C193.761466,377.989309 193.175975,386.58195 193.175975,395.31941 C193.175975,404.016643 193.761466,412.625375 194.852243,421.032969 C195.951041,429.673883 197.651371,438.161932 199.848966,446.360341 C202.070623,454.792071 204.845689,462.982435 208.118022,470.82684 C211.422436,478.872384 215.232136,486.604152 219.523062,494.022143 C223.813988,501.512545 228.626241,508.673079 233.839516,515.487655 C239.06081,522.294185 244.723229,528.794984 250.802709,534.813051 C256.874168,540.951801 263.338629,546.631955 270.164008,551.845468 C276.957306,557.083117 284.087461,561.93458 291.546454,566.279173 C298.949303,570.527221 306.640888,574.372991 314.613188,577.663618 C322.497263,580.9462 330.629971,583.697776 338.995271,585.966619 C347.208184,588.203281 355.645668,589.788253 364.22752,590.922674 C372.648963,592.073187 381.230815,592.660512 389.908912,592.660512 C398.651172,592.660512 407.200942,592.073187 415.606345,590.922674 C424.204237,589.788253 432.641721,588.18719 440.854634,585.966619 C449.219934,583.697776 457.344622,580.9462 465.236717,577.663618 C473.200997,574.372991 480.908622,570.527221 488.319492,566.255037 C495.762444,561.93458 502.916661,557.083117 509.693918,551.845468 C516.511277,546.631955 522.991778,540.951801 529.047196,534.813051 C535.110636,528.794984 540.773054,522.294185 546.002369,515.487655 C551.239705,508.673079 556.027897,501.512545 560.334864,494.022143 L517.72236,469.330369 L475.093816,444.678822 C472.944343,448.387818 470.570298,451.984176 467.963661,455.347214 C465.349003,458.774615 462.533835,462.057197 459.486075,465.05014 C456.470396,468.075264 453.198063,470.939478 449.821466,473.546234 C446.412786,476.144945 442.843698,478.558608 439.106182,480.722859 C435.416787,482.854928 431.550944,484.80195 427.588855,486.523696 C423.634787,488.092577 419.576454,489.476411 415.381773,490.602787 C411.275317,491.721118 407.056574,492.517627 402.765649,493.104951 C398.570968,493.660094 394.288062,494.022143 389.908912,494.022143 C385.569863,494.022143 381.278937,493.660094 377.084257,493.104951 C372.793331,492.517627 368.566568,491.721118 364.460112,490.602787 C360.297513,489.476411 356.207098,488.092577 352.277091,486.523696 C348.2749,484.80195 344.441138,482.854928 340.743723,480.722859 C337.022248,478.558608 333.437119,476.144945 330.060521,473.546234 C326.635801,470.939478 323.403571,468.075264 320.363831,465.098413 C317.332111,462.057197 314.524963,458.774615 311.910306,455.347214 C309.271587,451.984176 306.905562,448.387818 304.732028,444.678822 C302.598595,440.913508 300.673694,437.067738 299.021487,433.085194 C297.385321,429.11874 296.013829,425.007467 294.89097,420.815739 C293.800192,416.712512 292.974089,412.496647 292.396618,408.168144 C291.86727,403.992507 291.554474,399.704232 291.554474,395.31941 C291.554474,390.918498 291.86727,386.622177 292.396618,382.398267 C292.974089,378.101946 293.800192,373.894127 294.89097,369.742626" id="Fill-2"></path>
                        </g>
                    </g>
                </g>
            </g>
        </g>
    </g>
</svg>