<?xml version="1.0" encoding="UTF-8" standalone="no"?>
<svg width="824px" height="782px" viewBox="0 0 824 782" version="1.1" xmlns="http://www.w3.org/2000/svg" xmlns:xlink="http://www.w3.org/1999/xlink" xmlns:sketch="http://www.bohemiancoding.com/sketch/ns">
    <!-- Generator: Sketch 3.4.4 (17249) - http://www.bohemiancoding.com/sketch -->
    <title>Shape Copy + Oval 1</title>
    <desc>Created with Sketch.</desc>
    <defs></defs>
    <g id="Page-1" stroke="none" stroke-width="1" fill="none" fill-rule="evenodd" sketch:type="MSPage">
        <g id="Desktop-HD" sketch:type="MSArtboardGroup" transform="translate(-616.000000, -4276.000000)">
            <g id="Work" sketch:type="MSLayerGroup" transform="translate(-34.000000, 1463.000000)">
                <g id="Rectangle-12-+-Just-keep-swimming" transform="translate(0.000000, 2813.000000)" sketch:type="MSShapeGroup">
                    <g id="Rectangle-12-+-Group">
                        <g id="Shape-Copy-+-Oval-1" transform="translate(650.000000, 0.000000)">
                            <path d="M256.014004,65.3680039 C256.449438,51.3869643 263.215578,35.1195086 268.834416,23.1554676 C268.400355,40.850884 261.201474,55.1886193 261.368892,72.2169139 C261.4493,80.4211203 268.250677,85.651251 269.777629,94.734822 C268.963485,102.706803 268.148799,110.681353 267.334654,118.653334 C275.197534,107.916289 283.063077,97.1759436 290.92581,86.4384727 C296.730784,82.3191904 302.538012,78.198178 308.34284,74.0784698 C313.265514,67.3198509 312.136651,57.2910566 318.873763,51.3840281 C317.069883,60.0317258 314.86428,68.4859106 312.659643,76.9373805 C308.955316,82.9119138 300.44464,85.0096734 295.35555,90.5966047 C280.923999,106.440862 240.178331,161.120794 278.398745,176.040678 C301.509146,185.061705 333.731222,147.436761 339.733889,130.475995 C344.767889,116.253097 344.851738,99.9003731 352.441086,86.9648098 C361.985474,74.9790794 371.532804,62.9894763 381.077617,51.0035995 C374.293843,63.2635921 366.603244,74.8358802 358.915161,86.404442 C351.189531,99.8605265 349.558205,118.673374 346.352586,134.213723 C357.726286,125.609775 369.103937,117.003513 380.477637,108.399565 C384.576743,99.9636631 388.676814,91.5250463 392.77592,83.0891443 C391.069419,93.4506426 389.262964,104.221524 382.811217,112.277257 C371.506877,126.390975 285.589453,185.724143 317.309405,207.772364 C328.965009,215.873783 358.563697,194.422088 369.542326,188.088103 C382.009596,182.340281 394.479969,176.590436 406.947093,170.842188 C412.282735,163.094627 417.619767,155.344206 422.955409,147.596646 C435.194804,131.620812 468.738469,122.963109 486.256051,128.109405 C473.689558,133.05634 455.096081,131.966839 439.633022,140.842375 C425.052275,149.211674 423.104204,164.69091 412.373515,174.991052 C402.03362,180.785602 391.690768,186.582601 381.350873,192.377152 C401.532496,196.787729 421.719812,201.199678 441.901435,205.610256 C449.152755,206.342505 456.40592,207.074595 463.65724,207.806844 C434.960545,220.056251 405.04099,195.809882 378.042729,200.206834 C366.54497,206.512605 355.043962,212.819973 343.546627,219.125598 C335.04463,224.140128 326.556101,230.378612 327.610122,239.670522 C331.644402,275.239224 426.571868,250.353952 444.109589,283.776761 C439.8279,281.017216 435.545069,278.257112 431.262955,275.497714 C426.788779,273.860214 385.175377,266.613002 381.565237,270.562338 C391.18393,276.248213 396.485979,284.907028 404.011605,291.249398 C409.691012,294.195331 415.371853,297.142675 421.050982,300.089181 C393.504305,296.826325 377.268631,261.345297 348.382782,271.971622 C360.91756,293.527873 365.093814,317.598179 371.472137,344.944119 C374.775158,355.843376 378.079497,366.746466 381.382664,377.646149 C374.575053,365.279538 368.464844,353.002574 362.356523,340.729723 C353.545627,322.771346 354.466341,273.396197 332.217584,270.522583 C285.905108,264.540863 286.599917,350.607949 284.176747,377.053047 C278.705948,436.756034 184.20782,502.284678 219.540014,574.922733 C229.413112,595.220694 243.271105,604.271925 260.372506,609.335929 C312.195168,624.682627 345.543482,599.763237 411.24948,584.732518 C427.244467,579.551329 443.244124,574.36853 459.238687,569.187487 C475.611822,561.31152 490.714384,548.773511 511.02974,545.308584 C548.582013,538.903395 578.149985,558.585279 600.748015,583.265026 C610.99461,594.455764 617.381617,605.920796 630.543061,610.782315 C670.309916,625.471916 687.749437,575.112449 713.622604,556.716639 C726.674808,549.763369 739.731111,542.808209 752.78374,535.854792 C762.393766,525.520921 795.03161,423.003302 797.584425,405.358539 C798.820965,396.811679 794.458011,385.588594 794.189801,376.095262 C796.270434,358.880575 798.351579,341.660472 800.432212,324.445785 C801.348869,319.361076 808.889972,238.646364 821.008515,261.1641 C815.395319,296.54052 809.78053,331.927494 804.167188,367.303489 C803.51931,376.024179 808.243008,386.765103 807.561959,396.567193 C841.782803,384.111186 830.732266,343.144447 872.409703,334.072445 C944.047494,318.479706 987.325129,343.78493 1035.24621,376.246322 C1042.69056,381.289034 1079.3293,401.340969 1077.76411,409.743911 C1068.98793,416.011558 1006.65994,366.982689 994.497938,359.52942 C970.931747,345.087096 896.374019,325.369513 858.333078,351.301118 C846.576948,359.31474 846.01278,376.706308 835.574697,386.907455 C811.766039,410.175539 801.58024,414.148134 794.619467,446.179593 C809.499678,430.808974 830.029349,436.311933 849.626851,424.869759 C861.854562,417.73061 868.194682,403.1888 873.691854,399.849267 C878.231535,397.09144 880.560642,401.003068 881.615617,404.474653 C875.365121,418.637796 857.517951,438.703022 833.659656,442.415942 C825.481015,443.688439 816.165523,440.404748 808.769888,445.64754 C788.124132,460.283773 772.426388,507.738818 766.790109,531.024923 C785.730559,524.698939 839.809011,462.698397 850.073963,467.858439 C850.618726,469.11975 851.163636,470.381486 851.708252,471.642371 C849.946231,476.146329 844.994057,476.819297 841.032145,480.340664 C836.045775,486.519096 831.057999,492.698966 826.071482,498.876973 C819.670305,503.202323 813.267152,507.528831 806.866399,511.854034 C819.384012,523.672224 823.511752,533.089934 844.027851,528.804526 C857.832181,521.510435 848.66111,501.704978 876.201365,507.008023 C880.510935,507.838122 882.990443,506.971671 885.327399,512.222093 C884.810424,513.626579 884.29317,515.031637 883.776195,516.436122 C877.066589,516.631813 870.354714,516.827809 863.644684,517.023646 C860.548737,522.884143 857.452528,528.746636 854.356581,534.607132 C843.449689,544.172472 818.490617,537.744966 811.071972,532.811534 C807.269096,528.214767 803.46578,523.616722 799.663474,519.020234 C794.529478,523.799933 789.394223,528.581496 784.260373,533.361621 C775.862357,537.372282 767.461794,541.38382 759.063778,545.39448 C768.62873,548.608345 779.283481,549.371755 787.089201,556.131082 C794.637015,562.667789 799.070741,572.697897 807.151442,577.64027 C812.27264,580.772975 822.702595,578.196792 825.639375,581.967473 C827.092028,615.198899 782.636003,566.000575 779.588314,563.40003 C769.678704,559.459907 760.876429,556.80862 752.076863,554.158304 C729.698627,552.076311 701.138321,580.052747 692.662419,592.706165 C733.378604,579.877299 748.412327,645.068098 781.777744,658.963428 C784.938565,660.280167 792.164188,664.472687 787.266835,669.11076 C769.255118,686.167665 726.093963,606.788301 710.400794,601.638855 C690.091605,594.975138 676.762318,619.099978 658.681421,622.818139 C645.931658,625.439677 637.030698,621.657658 626.844581,619.415443 C653.692573,667.839957 673.306618,737.577142 662.008525,779.860689 C660.587241,780.573744 659.165533,781.286945 657.744249,782 C652.069535,779.926615 652.726124,720.768989 649.359558,704.291261 C637.334752,645.432563 603.650237,591.866259 569.28996,568.360878 C555.822177,559.147936 536.310285,551.954418 517.700115,554.044826 C494.79576,556.617512 450.492455,581.924596 429.275543,592.563213 C416.657466,596.579929 404.035994,600.597816 391.417917,604.614532 C336.091411,617.104572 289.921588,631.782595 249.377596,616.137621 C138.80708,573.471636 265.244871,422.628773 254.351849,356.234498 C249.237208,346.851741 244.12097,337.465724 239.005758,328.082688 C230.826299,315.069155 222.024451,302.460321 209.68328,298.061009 C172.024847,284.637549 160.533411,368.377053 149.781511,385.605431 C145.649149,392.226817 120.108267,416.346143 111.741824,418.454667 C121.211206,408.835757 130.683251,399.213547 140.153057,389.594491 C149.312462,378.694286 153.930538,358.610932 155.531352,344.158478 C143.485639,355.748617 126.726757,363.478918 117.080488,375.811812 C115.998378,377.188227 114.915991,378.565214 113.833881,379.941629 C110.556599,363.856144 141.152738,349.702186 150.78338,338.104026 C153.543054,331.913115 156.303987,325.72034 159.063808,319.529854 C132.947493,322.214011 128.276542,341.447624 116.316982,350.323625 C108.100665,352.599518 99.8812305,354.876009 91.664489,357.152048 C85.4993681,358.609621 79.3322565,360.066928 73.1674137,361.52393 C85.7095896,356.641594 98.2560101,351.757794 110.798186,346.875459 C116.205831,339.66044 121.615013,332.442986 127.022511,325.227541 C140.441354,318.371266 153.864427,311.512103 167.28327,304.655827 C172.779669,296.40646 178.277751,288.155083 183.774151,279.905715 C163.223012,268.896955 158.161158,287.653686 134.849373,291.760294 C114.881592,295.277816 98.9191683,288.558158 80.8763879,287.964276 C70.3580401,287.618306 63.6412488,294.671178 51.9593405,296.932582 C36.8610605,299.855665 10.1452663,293.604713 0,285.419323 C16.567862,287.397402 33.1402763,289.376293 49.7082847,291.354798 C59.3189381,291.379227 68.1366339,281.806397 78.409323,280.788868 C109.418736,277.716985 127.139173,294.055549 156.827788,267.459327 C161.92679,262.8913 167.457623,260.642514 166.147152,252.874862 C143.89058,256.648085 121.627772,260.422505 99.3713463,264.196154 C76.9329842,263.238678 54.4880941,262.281548 32.0498784,261.324498 C45.2568329,259.668145 58.4784671,259.011426 71.6959884,258.355172 C92.2979139,257.563036 115.483509,254.127818 139.273308,247.426335 C125.450872,242.126761 116.960036,231.988399 100.816786,230.588005 C87.5337838,231.378312 74.2470935,232.168939 60.9646625,232.959526 C67.6915905,231.197225 74.4202162,229.434338 81.1471442,227.672037 C97.1838917,224.208584 107.172704,223.228445 119.221487,226.916821 C138.164797,232.716232 154.29852,250.638564 183.923535,236.71182 C188.019727,221.117332 173.348474,207.604603 162.441735,203.317566 C150.981345,203.591326 139.51712,203.864979 128.056584,204.138313 C101.024577,202.641633 72.9419995,199.771277 49.4603959,190.773925 C61.0374741,192.132039 72.4229408,193.892554 83.8049971,195.652816 C105.599129,195.382805 127.399935,195.112874 149.194491,194.842716 C142.101735,188.290101 136.878976,179.950275 128.269198,176.640939 C119.733329,173.788217 111.195177,170.934378 102.659163,168.08123 C89.3238361,157.408701 75.9844988,146.732792 62.649026,136.059837 C82.8118249,150.43383 105.523171,164.121457 129.984309,169.026166 C122.47145,151.022251 109.833914,145.734732 97.1679547,138.537658 C95.4963968,137.55343 93.824268,136.568923 92.1527101,135.584695 C133.398505,125.001812 138.116785,203.29124 180.485951,193.751089 C190.442584,191.509145 197.683204,186.801432 201.788043,181.054176 C189.943,173.100496 178.094093,165.143861 166.248903,157.189755 C153.215013,146.747703 140.177112,136.302271 127.143222,125.860219 C106.496849,113.397977 79.9987156,112.049716 55.6680046,107.030003 C104.257456,102.060011 134.220298,123.021547 168.550091,148.370093 C180.021694,155.560755 191.496592,162.754091 202.968342,169.945179 C203.514139,122.839235 156.724809,115.65425 131.558999,99.9232526 C120.663295,93.112333 111.622663,83.4365276 102.370724,73.1999956 C97.5955802,67.7127601 92.8188555,62.2236878 88.0432874,56.7365987 C103.995883,73.6833455 130.365487,98.0634122 152.112533,101.531157 C137.973134,87.5644413 141.282015,65.9793631 137.297713,47.7781469 C135.039857,41.5343399 132.781268,35.2884035 130.523412,29.0445965 C134.675312,35.3041178 138.129649,41.472142 141.582976,47.6386091 C144.260865,60.6137165 143.520406,77.1666608 151.196248,90.1418663 C162.241406,108.811352 187.551366,119.150935 202.491525,133.655665 C207.566394,138.582691 212.746799,145.447465 215.370551,154.632066 C216.001212,157.758816 216.631594,160.886139 217.262254,164.012889 C220.070304,167.393974 232.269941,169.208158 237.538241,167.723035 C244.861441,147.998343 258.244021,125.784962 259.502133,103.628916 C260.110962,92.9056303 241.26378,45.982002 233.113923,29.7874426 C228.038538,19.7027728 211.810595,3.775162 210.872013,5.68434189e-14 C236.074716,8.94503247 236.634752,42.879185 256.014004,65.3680039 L256.014004,65.3680039 Z" id="Shape-Copy" fill="#B5E0FC"></path>
                            <path d="M266.496213,284 C287.452231,284 292.200367,266.98682 292.200367,246 C292.200367,225.01318 287.452231,208 266.496213,208 C245.540195,208 231,225.01318 231,246 C231,266.98682 245.540195,284 266.496213,284 Z" id="Oval-1" fill="#22A7F0"></path>
                        </g>
                    </g>
                </g>
            </g>
        </g>
    </g>
</svg>